<svg width="90" height="90" viewBox="0 0 90 90" fill="none" xmlns="http://www.w3.org/2000/svg">
<g id="car-icon">
<circle id="Ellipse 1" cx="45" cy="45" r="44.5" fill="white" stroke="#6CC168"/>
<path id="Vector" d="M54.2 40.7917C54.4208 40.7917 54.6 40.9643 54.6 41.1771V41.5702C54.6 42.1822 53.8592 42.3333 53.3072 42.3333L52.4384 40.7917H54.2ZM53.0464 43.4942C53.5584 44.4084 53.8032 45.2301 53.8032 46.3201C53.8032 47.3761 53.4864 48.2734 52.9984 49.3895V50.8125C52.9984 51.238 52.64 51.5833 52.1984 51.5833H50.9984C50.5568 51.5833 50.1984 51.238 50.1984 50.8125V50.0417H39.7984V50.8125C39.7984 51.238 39.44 51.5833 38.9984 51.5833H37.8C37.3584 51.5833 37 51.238 37 50.8125V49.388C36.5136 48.2718 36.1952 47.3746 36.1952 46.3185C36.1952 45.2286 36.4416 44.4069 36.952 43.4927C37.6144 42.3087 38.4336 40.8317 39.296 39.4442C39.96 38.3805 40.3056 38.1292 41.1184 37.9889C42.3456 37.7777 43.4528 37.7083 45 37.7083C46.5472 37.7083 47.6544 37.7777 48.8816 37.9889C49.6944 38.1292 50.0416 38.379 50.704 39.4458C51.5664 40.8333 52.384 42.3087 53.0464 43.4942V43.4942ZM40.2 45.8021C40.2 45.1638 39.6624 44.6458 39 44.6458C38.3376 44.6458 37.8 45.1638 37.8 45.8021C37.8 46.4403 38.3376 46.9583 39 46.9583C39.6624 46.9583 40.2 46.4403 40.2 45.8021ZM48.2 46.5729C48.2 46.3602 48.0208 46.1875 47.8 46.1875H42.2C41.9792 46.1875 41.8 46.3602 41.8 46.5729C41.8 46.7857 41.9792 46.9583 42.2 46.9583H47.8C48.0208 46.9583 48.2 46.7857 48.2 46.5729ZM50.5536 42.3117C50.5536 42.3117 49.9616 40.9042 49.2496 39.8898C49.088 39.6601 48.8368 39.5028 48.5536 39.4535C47.344 39.2438 46.2848 39.1775 45 39.1775C43.7152 39.1775 42.656 39.2438 41.448 39.4535C41.1648 39.5028 40.9136 39.6601 40.752 39.8898C40.04 40.9042 39.4464 42.3117 39.4464 42.3117C40.76 42.5538 42.8944 42.6956 45 42.6956C47.1056 42.6956 49.24 42.5538 50.5536 42.3117V42.3117ZM52.2 45.8021C52.2 45.1638 51.6624 44.6458 51 44.6458C50.3376 44.6458 49.8 45.1638 49.8 45.8021C49.8 46.4403 50.3376 46.9583 51 46.9583C51.6624 46.9583 52.2 46.4403 52.2 45.8021ZM37.5616 40.7917H35.8C35.5792 40.7917 35.4 40.9643 35.4 41.1771V41.5702C35.4 42.1822 36.1408 42.3333 36.6928 42.3333L37.5616 40.7917ZM45 30C36.1632 30 29 36.7741 29 45.1315C29 53.6183 36 59.4196 45 67C54 59.4196 61 53.6183 61 45.1315C61 36.7741 53.8352 30 45 30ZM45 57.75C37.9296 57.75 32.2 52.2277 32.2 45.4167C32.2 38.6056 37.9296 33.0833 45 33.0833C52.0704 33.0833 57.8 38.6056 57.8 45.4167C57.8 52.2277 52.0704 57.75 45 57.75Z" fill="#6CC168"/>
</g>
</svg>
