<svg width="284" height="137" viewBox="0 0 284 137" fill="none" xmlns="http://www.w3.org/2000/svg">
<path d="M102.264 29.4961C92.7418 34.8989 80.6534 31.8869 74.6988 22.8739C74.2576 22.2062 74.5053 21.3098 75.2266 20.9644C84.9599 16.3055 96.8724 19.9542 102.264 29.4961Z" fill="#ADCB74"/>
<path d="M105.906 4.26313L102.263 29.4954C111.785 24.0926 115.427 12.1562 110.778 2.40292C110.434 1.68244 109.541 1.42976 108.876 1.87048C107.799 2.58486 106.808 3.38751 105.906 4.26313V4.26313Z" fill="#1FB55B"/>
<path d="M105.907 4.26308C99.2797 10.7009 97.517 21.0945 102.264 29.4953C109.578 25.3453 111.158 14.0952 105.907 4.26308V4.26308Z" fill="#7CC466"/>
<g clip-path="url(#clip0)">
<path d="M155.271 86.2543C173.321 86.2543 187.954 71.5997 187.954 53.5224C187.954 35.445 173.321 20.7904 155.271 20.7904C137.221 20.7904 122.588 35.445 122.588 53.5224C122.588 71.5997 137.221 86.2543 155.271 86.2543Z" fill="#FEE901"/>
<path d="M155.271 81.045C170.449 81.045 182.753 68.7227 182.753 53.5224C182.753 38.3221 170.449 25.9998 155.271 25.9998C140.094 25.9998 127.79 38.3221 127.79 53.5224C127.79 68.7227 140.094 81.045 155.271 81.045Z" fill="#FEFF9E"/>
<path d="M160.986 31.9509C159.162 31.4671 157.247 31.209 155.271 31.209V49.3207C156.251 49.3207 157.23 48.7846 157.674 47.7127L165.338 41.5914L162.737 35.4701C163.342 34.008 162.513 32.3561 160.986 31.9509Z" fill="#FEE901"/>
<path d="M157.108 31.9509C156.522 31.4671 155.906 31.209 155.271 31.209C153.295 31.209 151.38 31.4671 149.556 31.9509C148.029 32.3561 147.2 34.008 147.805 35.4703L145.204 41.5916L152.868 47.7129C153.312 48.7848 154.291 49.3209 155.271 49.3209C155.586 49.3209 155.901 48.7848 156.043 47.7129L157.671 35.4703C157.865 34.008 157.599 32.3561 157.108 31.9509V31.9509Z" fill="#FEF44E"/>
<path d="M144.082 34.2219C142.451 35.1714 140.914 36.3453 139.517 37.7445L152.305 50.5515C152.998 49.8576 153.312 48.7848 152.869 47.7129L147.805 35.4703C147.2 34.008 145.448 33.4267 144.082 34.2219V34.2219Z" fill="#FEE901"/>
<path d="M141.34 36.9683C140.584 37.0414 139.966 37.2948 139.517 37.7445C138.12 39.1436 136.948 40.6826 136 42.316C135.206 43.6845 135.786 45.4392 137.246 46.0449L139.729 52.215L149.47 51.1158C150.541 51.5598 151.612 51.245 152.305 50.5511C152.527 50.3282 152.372 49.7261 151.715 48.8673L144.223 39.0579C143.328 37.8865 141.973 36.907 141.34 36.9683V36.9683Z" fill="#FEF44E"/>
<path d="M133.732 47.799C133.249 49.6254 132.991 51.5437 132.991 53.5224H151.076C151.076 52.5411 150.54 51.56 149.47 51.116L137.246 46.0449C135.786 45.4392 134.137 46.2691 133.732 47.799V47.799Z" fill="#FEE901"/>
<path d="M133.732 51.6828C133.249 52.2699 132.991 52.8863 132.991 53.5224C132.991 55.5011 133.249 57.4193 133.732 59.2457C134.137 60.7757 135.786 61.6055 137.246 60.9999L143.358 63.6045L149.47 55.9288C150.541 55.4847 151.076 54.5035 151.076 53.5224C151.076 53.2071 150.541 52.8917 149.47 52.749L137.246 51.1192C135.786 50.9245 134.137 51.191 133.732 51.6828V51.6828Z" fill="#FEF44E"/>
<path d="M136 64.7287C136.948 66.3623 138.12 67.9012 139.517 69.3002L152.305 56.4932C151.612 55.7994 150.541 55.4845 149.471 55.9286L137.247 60.9997C135.786 61.6055 135.206 63.3602 136 64.7287V64.7287Z" fill="#FEE901"/>
<path d="M138.742 67.475C138.815 68.2321 139.068 68.8506 139.517 69.3004C140.914 70.6994 142.451 71.8734 144.082 72.8229C145.448 73.6182 147.2 73.037 147.805 71.5746L153.966 69.088L152.868 59.3321C153.312 58.2602 152.997 57.1874 152.304 56.4936C152.082 56.2706 151.481 56.4265 150.623 57.0836L140.828 64.588C139.659 65.484 138.681 66.8407 138.742 67.475V67.475Z" fill="#FEF44E"/>
<path d="M149.556 75.0938C151.38 75.5776 153.295 75.8356 155.271 75.8356V57.724C154.291 57.724 153.312 58.26 152.868 59.3319L147.805 71.5746C147.2 73.0366 148.029 74.6885 149.556 75.0938Z" fill="#FEE901"/>
<path d="M153.434 75.0939C154.021 75.5776 154.636 75.8357 155.271 75.8357C157.247 75.8357 159.162 75.5776 160.986 75.0939C162.514 74.6886 163.342 73.0367 162.737 71.5744L165.338 65.4531L157.674 59.3318C157.231 58.2599 156.251 57.7239 155.271 57.7239C154.956 57.7239 154.641 58.2599 154.499 59.3318L152.872 71.5744C152.677 73.0367 152.943 74.6886 153.434 75.0939V75.0939Z" fill="#FEF44E"/>
<path d="M166.46 72.8227C168.092 71.8732 169.628 70.6994 171.025 69.3002L158.237 56.4932C157.545 57.1871 157.23 58.2599 157.674 59.3318L162.737 71.5744C163.342 73.0367 165.094 73.618 166.46 72.8227Z" fill="#FEE901"/>
<path d="M169.203 70.0764C169.959 70.0033 170.576 69.7499 171.025 69.3002C172.422 67.9011 173.595 66.3621 174.543 64.7286C175.337 63.3602 174.757 61.6055 173.296 60.9998L170.813 54.8297L161.072 55.9289C160.002 55.4849 158.931 55.7997 158.238 56.4936C158.015 56.7165 158.171 57.3186 158.827 58.1774L166.32 67.9867C167.215 69.1581 168.57 70.1377 169.203 70.0764V70.0764Z" fill="#FEF44E"/>
<path d="M176.81 59.2457C177.293 57.4193 177.551 55.5011 177.551 53.5224H159.466C159.466 54.5037 160.002 55.4848 161.072 55.9288L173.296 60.9999C174.756 61.6056 176.405 60.7757 176.81 59.2457V59.2457Z" fill="#FEE901"/>
<path d="M176.81 55.362C177.293 54.7749 177.551 54.1584 177.551 53.5224C177.551 51.5437 177.293 49.6255 176.81 47.7991C176.406 46.2691 174.756 45.4392 173.296 46.0449L167.184 43.4402L161.072 51.116C160.002 51.56 159.466 52.5413 159.466 53.5224C159.466 53.8377 160.002 54.1531 161.072 54.2958L173.296 55.9256C174.756 56.1203 176.406 55.8537 176.81 55.362V55.362Z" fill="#FEF44E"/>
<path d="M174.542 42.316C173.594 40.6824 172.422 39.1436 171.025 37.7445L158.237 50.5515C158.93 51.2454 160.001 51.5602 161.072 51.1162L173.296 46.0451C174.756 45.4392 175.336 43.6845 174.542 42.316Z" fill="#FEE901"/>
<path d="M171.8 39.5697C171.727 38.8126 171.474 38.1941 171.025 37.7444C169.628 36.3453 168.092 35.1713 166.461 34.2218C165.094 33.4265 163.342 34.0077 162.738 35.4701L157.674 47.7128C157.231 48.7847 157.545 49.8574 158.238 50.5513C158.461 50.7743 159.062 50.6183 159.919 49.9613L169.714 42.4569C170.884 41.5607 171.862 40.204 171.8 39.5697V39.5697Z" fill="#FEF44E"/>
</g>
<g clip-path="url(#clip1)">
<path d="M120.38 87.3775C138.43 87.3775 153.063 72.7229 153.063 54.6455C153.063 36.5682 138.43 21.9136 120.38 21.9136C102.33 21.9136 87.6973 36.5682 87.6973 54.6455C87.6973 72.7229 102.33 87.3775 120.38 87.3775Z" fill="#FF7A3C"/>
<path d="M120.38 82.1682C135.558 82.1682 147.862 69.8459 147.862 54.6456C147.862 39.4452 135.558 27.1229 120.38 27.1229C105.203 27.1229 92.8989 39.4452 92.8989 54.6456C92.8989 69.8459 105.203 82.1682 120.38 82.1682Z" fill="#FFE8C2"/>
<path d="M126.095 33.074C124.271 32.5903 122.356 32.3322 120.38 32.3322V50.4438C121.36 50.4438 122.339 49.9078 122.783 48.8359L130.447 42.7146L127.846 36.5933C128.451 35.1312 127.622 33.4793 126.095 33.074Z" fill="#FF7A3C"/>
<path d="M122.217 33.074C121.631 32.5903 121.015 32.3322 120.38 32.3322C118.404 32.3322 116.489 32.5903 114.665 33.074C113.138 33.4793 112.309 35.1312 112.914 36.5934L110.313 42.7148L117.977 48.8361C118.421 49.908 119.4 50.444 120.38 50.444C120.695 50.444 121.01 49.908 121.152 48.8361L122.78 36.5934C122.974 35.1312 122.708 33.4793 122.217 33.074V33.074Z" fill="#FF9A42"/>
<path d="M109.191 35.3451C107.559 36.2946 106.023 37.4684 104.626 38.8677L117.414 51.6746C118.107 50.9807 118.421 49.908 117.978 48.8361L112.914 36.5934C112.309 35.1312 110.557 34.5498 109.191 35.3451V35.3451Z" fill="#FF7A3C"/>
<path d="M106.448 38.0915C105.692 38.1646 105.075 38.418 104.626 38.8677C103.229 40.2668 102.057 41.8058 101.109 43.4393C100.314 44.8078 100.895 46.5624 102.355 47.1681L104.838 53.3382L114.579 52.239C115.65 52.683 116.721 52.3682 117.414 51.6743C117.636 51.4514 117.48 50.8494 116.824 49.9905L109.331 40.1812C108.436 39.0098 107.082 38.0302 106.448 38.0915V38.0915Z" fill="#FF9A42"/>
<path d="M98.8408 48.9222C98.3577 50.7486 98.1001 52.6669 98.1001 54.6455H116.185C116.185 53.6643 115.649 52.6832 114.579 52.2392L102.355 47.1681C100.895 46.5624 99.2455 47.3922 98.8408 48.9222V48.9222Z" fill="#FF7A3C"/>
<path d="M98.8408 52.806C98.3577 53.3931 98.1001 54.0095 98.1001 54.6456C98.1001 56.6242 98.3577 58.5425 98.8408 60.3689C99.2455 61.8989 100.895 62.7287 102.355 62.123L108.467 64.7277L114.579 57.0519C115.649 56.6079 116.185 55.6267 116.185 54.6456C116.185 54.3302 115.649 54.0149 114.579 53.8721L102.355 52.2423C100.895 52.0477 99.2455 52.3142 98.8408 52.806V52.806Z" fill="#FF9A42"/>
<path d="M101.108 65.8518C102.057 67.4855 103.229 69.0243 104.626 70.4234L117.413 57.6164C116.721 56.9225 115.649 56.6077 114.579 57.0517L102.355 62.1228C100.895 62.7287 100.314 64.4834 101.108 65.8518V65.8518Z" fill="#FF7A3C"/>
<path d="M103.851 68.5982C103.924 69.3553 104.177 69.9738 104.626 70.4235C106.023 71.8226 107.56 72.9966 109.191 73.9461C110.557 74.7414 112.309 74.1602 112.914 72.6977L119.075 70.2112L117.977 60.4553C118.42 59.3834 118.106 58.3106 117.413 57.6167C117.191 57.3938 116.59 57.5497 115.732 58.2068L105.937 65.7112C104.768 66.6072 103.79 67.9638 103.851 68.5982V68.5982Z" fill="#FF9A42"/>
<path d="M114.665 76.217C116.489 76.7008 118.404 76.9588 120.38 76.9588V58.8472C119.4 58.8472 118.421 59.3832 117.977 60.4551L112.914 72.6977C112.309 74.1598 113.138 75.8117 114.665 76.217Z" fill="#FF7A3C"/>
<path d="M118.543 76.217C119.129 76.7008 119.745 76.9588 120.38 76.9588C122.356 76.9588 124.271 76.7008 126.095 76.217C127.622 75.8118 128.451 74.1599 127.846 72.6976L130.447 66.5763L122.783 60.455C122.339 59.3831 121.36 58.847 120.38 58.847C120.065 58.847 119.75 59.3831 119.608 60.455L117.98 72.6976C117.786 74.1599 118.052 75.8118 118.543 76.217V76.217Z" fill="#FF9A42"/>
<path d="M131.569 73.9459C133.201 72.9964 134.737 71.8226 136.134 70.4234L123.346 57.6164C122.653 58.3103 122.339 59.3831 122.782 60.455L127.846 72.6976C128.451 74.1598 130.203 74.7412 131.569 73.9459Z" fill="#FF7A3C"/>
<path d="M134.312 71.1995C135.068 71.1264 135.685 70.8731 136.134 70.4233C137.531 69.0243 138.704 67.4853 139.652 65.8518C140.446 64.4833 139.865 62.7286 138.405 62.123L135.922 55.9529L126.181 57.052C125.111 56.608 124.04 56.9229 123.347 57.6167C123.124 57.8397 123.28 58.4417 123.936 59.3006L131.429 69.1099C132.324 70.2813 133.678 71.2608 134.312 71.1995V71.1995Z" fill="#FF9A42"/>
<path d="M141.919 60.3689C142.402 58.5425 142.66 56.6242 142.66 54.6456H124.575C124.575 55.6268 125.11 56.6079 126.181 57.0519L138.405 62.123C139.865 62.7287 141.514 61.8989 141.919 60.3689V60.3689Z" fill="#FF7A3C"/>
<path d="M141.919 56.4851C142.402 55.8981 142.66 55.2816 142.66 54.6456C142.66 52.6669 142.402 50.7486 141.919 48.9222C141.514 47.3923 139.865 46.5624 138.405 47.1681L132.293 44.5634L126.181 52.2392C125.11 52.6832 124.575 53.6645 124.575 54.6456C124.575 54.9609 125.11 55.2762 126.181 55.419L138.405 57.0488C139.865 57.2434 141.514 56.9769 141.919 56.4851V56.4851Z" fill="#FF9A42"/>
<path d="M139.651 43.4392C138.703 41.8056 137.531 40.2667 136.134 38.8677L123.346 51.6746C124.039 52.3685 125.11 52.6833 126.18 52.2393L138.405 47.1682C139.865 46.5624 140.445 44.8077 139.651 43.4392Z" fill="#FF7A3C"/>
<path d="M136.909 40.6929C136.836 39.9358 136.583 39.3173 136.134 38.8675C134.737 37.4685 133.201 36.2945 131.57 35.345C130.203 34.5497 128.451 35.1309 127.846 36.5933L122.783 48.8359C122.34 49.9078 122.654 50.9806 123.347 51.6745C123.569 51.8974 124.171 51.7415 125.028 51.0844L134.823 43.5801C135.993 42.6839 136.971 41.3272 136.909 40.6929V40.6929Z" fill="#FF9A42"/>
</g>
<path d="M27.2526 96.13C27.8126 96.21 28.1926 96.38 28.3926 96.64C28.6126 96.9 28.7226 97.24 28.7226 97.66C28.7226 99.04 27.9826 99.68 26.5026 99.58L25.4526 99.49C24.2726 99.39 23.0926 99.31 21.9126 99.25C20.7526 99.19 19.5326 99.16 18.2526 99.16H16.9026C16.6626 102.12 16.4126 104.82 16.1526 107.26L21.3126 107.17C22.0526 107.17 22.5426 107.3 22.7826 107.56C23.0426 107.82 23.1726 108.17 23.1726 108.61C23.1726 109.29 22.9726 109.83 22.5726 110.23C22.1726 110.61 21.6026 110.8 20.8626 110.8H15.7326L15.5526 112.09C15.1326 115.39 14.2326 117.74 12.8526 119.14C11.4926 120.54 9.61258 121.24 7.21258 121.24C5.85258 121.24 4.60258 120.95 3.46258 120.37C2.32258 119.77 1.48258 119.05 0.942578 118.21C0.722578 117.87 0.612578 117.46 0.612578 116.98C0.612578 116.5 0.722578 116.08 0.942578 115.72C1.18258 115.36 1.47258 115.18 1.81258 115.18C2.05258 115.18 2.28258 115.26 2.50258 115.42C2.74258 115.58 3.04258 115.89 3.40258 116.35C4.36258 117.61 5.55258 118.24 6.97258 118.24C8.11258 118.24 9.06258 117.78 9.82258 116.86C10.6026 115.92 11.1026 114.45 11.3226 112.45L11.5026 110.8H10.0626C9.60258 110.8 9.20258 110.67 8.86258 110.41C8.54258 110.15 8.38258 109.78 8.38258 109.3C8.38258 108.68 8.54258 108.21 8.86258 107.89C9.18258 107.55 9.65258 107.38 10.2726 107.38C10.8326 107.38 11.3826 107.37 11.9226 107.35C12.1626 105.15 12.4226 102.48 12.7026 99.34C10.5426 99.54 9.02258 99.89 8.14258 100.39C7.26258 100.89 6.82258 101.63 6.82258 102.61C6.82258 103.29 7.02258 103.94 7.42258 104.56C7.54258 104.74 7.60258 104.92 7.60258 105.1C7.60258 105.46 7.40258 105.78 7.00258 106.06C6.60258 106.32 6.15258 106.45 5.65258 106.45C5.11258 106.45 4.65258 106.29 4.27258 105.97C4.03258 105.77 3.80258 105.36 3.58258 104.74C3.36258 104.12 3.25258 103.43 3.25258 102.67C3.25258 100.19 4.52258 98.39 7.06258 97.27C9.62258 96.15 13.3526 95.59 18.2526 95.59C21.6526 95.59 24.6526 95.77 27.2526 96.13ZM25.57 121.15C24.81 121.15 24.27 120.75 23.95 119.95C23.65 119.15 23.5 117.87 23.5 116.11C23.5 113.51 23.87 111.04 24.61 108.7C24.79 108.12 25.08 107.7 25.48 107.44C25.9 107.16 26.48 107.02 27.22 107.02C27.62 107.02 27.9 107.07 28.06 107.17C28.22 107.27 28.3 107.46 28.3 107.74C28.3 108.06 28.15 108.78 27.85 109.9C27.65 110.7 27.49 111.4 27.37 112C27.25 112.6 27.15 113.34 27.07 114.22C27.73 112.5 28.47 111.1 29.29 110.02C30.11 108.94 30.91 108.17 31.69 107.71C32.49 107.25 33.22 107.02 33.88 107.02C35.18 107.02 35.83 107.67 35.83 108.97C35.83 109.23 35.74 109.86 35.56 110.86C35.4 111.66 35.32 112.16 35.32 112.36C35.32 113.06 35.57 113.41 36.07 113.41C36.63 113.41 37.35 112.97 38.23 112.09C38.49 111.83 38.76 111.7 39.04 111.7C39.3 111.7 39.5 111.82 39.64 112.06C39.8 112.28 39.88 112.58 39.88 112.96C39.88 113.7 39.68 114.28 39.28 114.7C38.72 115.28 38.06 115.78 37.3 116.2C36.56 116.6 35.77 116.8 34.93 116.8C33.87 116.8 33.06 116.53 32.5 115.99C31.96 115.45 31.69 114.72 31.69 113.8C31.69 113.5 31.72 113.2 31.78 112.9C31.82 112.5 31.84 112.23 31.84 112.09C31.84 111.77 31.73 111.61 31.51 111.61C31.21 111.61 30.81 111.95 30.31 112.63C29.83 113.29 29.35 114.17 28.87 115.27C28.39 116.37 28 117.53 27.7 118.75C27.48 119.69 27.22 120.33 26.92 120.67C26.64 120.99 26.19 121.15 25.57 121.15ZM40.1523 121.15C39.2523 121.15 38.5123 120.74 37.9323 119.92C37.3723 119.08 37.0923 118.04 37.0923 116.8C37.0923 115.3 37.1923 113.93 37.3923 112.69C37.5923 111.43 37.9223 110.1 38.3823 108.7C38.5823 108.1 38.8623 107.67 39.2223 107.41C39.5823 107.15 40.1523 107.02 40.9323 107.02C41.3723 107.02 41.6723 107.09 41.8323 107.23C42.0123 107.37 42.1023 107.58 42.1023 107.86C42.1023 108.02 41.9923 108.56 41.7723 109.48C41.5723 110.22 41.4123 110.89 41.2923 111.49C40.8923 113.59 40.6923 114.99 40.6923 115.69C40.6923 116.11 40.7423 116.41 40.8423 116.59C40.9423 116.75 41.1023 116.83 41.3223 116.83C41.6223 116.83 41.9923 116.53 42.4323 115.93C42.8923 115.33 43.3723 114.42 43.8723 113.2C44.3923 111.98 44.8923 110.48 45.3723 108.7C45.5323 108.1 45.7723 107.67 46.0923 107.41C46.4323 107.15 46.9323 107.02 47.5923 107.02C48.0523 107.02 48.3723 107.08 48.5523 107.2C48.7323 107.3 48.8223 107.5 48.8223 107.8C48.8223 108.3 48.5723 109.67 48.0723 111.91C47.5123 114.47 47.2323 116.05 47.2323 116.65C47.2323 117.03 47.3123 117.33 47.4723 117.55C47.6323 117.75 47.8423 117.85 48.1023 117.85C48.5023 117.85 48.9723 117.61 49.5123 117.13C50.0723 116.63 50.8123 115.83 51.7323 114.73C51.9723 114.45 52.2423 114.31 52.5423 114.31C52.8023 114.31 53.0023 114.43 53.1423 114.67C53.3023 114.91 53.3823 115.24 53.3823 115.66C53.3823 116.46 53.1923 117.08 52.8123 117.52C51.9523 118.58 51.0223 119.45 50.0223 120.13C49.0423 120.81 47.9223 121.15 46.6623 121.15C45.7023 121.15 44.9923 120.78 44.5323 120.04C44.0923 119.3 43.8723 118.26 43.8723 116.92C43.5323 118.28 43.0223 119.33 42.3423 120.07C41.6623 120.79 40.9323 121.15 40.1523 121.15ZM54.8798 105.04C54.0398 105.04 53.4098 104.85 52.9898 104.47C52.5698 104.07 52.3598 103.52 52.3598 102.82C52.3598 102.12 52.6298 101.54 53.1698 101.08C53.7298 100.6 54.4198 100.36 55.2398 100.36C55.9798 100.36 56.5798 100.54 57.0398 100.9C57.4998 101.26 57.7298 101.77 57.7298 102.43C57.7298 103.23 57.4698 103.87 56.9498 104.35C56.4298 104.81 55.7398 105.04 54.8798 105.04ZM54.6398 121.15C53.3398 121.15 52.3898 120.69 51.7898 119.77C51.2098 118.85 50.9198 117.63 50.9198 116.11C50.9198 115.21 51.0298 114.06 51.2498 112.66C51.4898 111.24 51.7898 109.92 52.1498 108.7C52.3298 108.06 52.5698 107.62 52.8698 107.38C53.1698 107.14 53.6498 107.02 54.3098 107.02C55.3298 107.02 55.8398 107.36 55.8398 108.04C55.8398 108.54 55.6498 109.7 55.2698 111.52C54.7898 113.72 54.5498 115.21 54.5498 115.99C54.5498 116.59 54.6298 117.05 54.7898 117.37C54.9498 117.69 55.2198 117.85 55.5998 117.85C55.9598 117.85 56.4098 117.6 56.9498 117.1C57.4898 116.6 58.2098 115.81 59.1098 114.73C59.3498 114.45 59.6198 114.31 59.9198 114.31C60.1798 114.31 60.3798 114.43 60.5198 114.67C60.6798 114.91 60.7598 115.24 60.7598 115.66C60.7598 116.46 60.5698 117.08 60.1898 117.52C58.2098 119.94 56.3598 121.15 54.6398 121.15ZM63.2826 109.87C63.2426 110.87 63.2226 111.65 63.2226 112.21C63.2226 113.65 63.2926 114.78 63.4326 115.6C63.5926 116.4 63.8426 116.98 64.1826 117.34C64.5426 117.68 65.0326 117.85 65.6526 117.85C65.9726 117.85 66.3526 117.75 66.7926 117.55C67.2326 117.35 67.6326 117.09 67.9926 116.77C68.2126 116.57 68.4326 116.47 68.6526 116.47C68.8926 116.47 69.0826 116.61 69.2226 116.89C69.3826 117.15 69.4626 117.47 69.4626 117.85C69.4626 118.23 69.3826 118.6 69.2226 118.96C69.0826 119.32 68.8626 119.62 68.5626 119.86C67.5226 120.72 66.3426 121.15 65.0226 121.15C63.1226 121.15 61.7326 120.36 60.8526 118.78C59.9726 117.18 59.5326 115.1 59.5326 112.54C59.5326 111.66 59.5626 110.77 59.6226 109.87H58.4526C57.8526 109.87 57.4426 109.76 57.2226 109.54C57.0226 109.32 56.9226 108.97 56.9226 108.49C56.9226 107.37 57.3726 106.81 58.2726 106.81H59.9826C60.3226 104.61 60.8426 102.6 61.5426 100.78C62.2426 98.96 63.0826 97.51 64.0626 96.43C65.0626 95.35 66.1326 94.81 67.2726 94.81C68.1126 94.81 68.7726 95.18 69.2526 95.92C69.7326 96.66 69.9726 97.59 69.9726 98.71C69.9726 101.81 68.6726 104.51 66.0726 106.81H69.4326C69.7526 106.81 69.9826 106.88 70.1226 107.02C70.2626 107.16 70.3326 107.42 70.3326 107.8C70.3326 109.18 69.2026 109.87 66.9426 109.87H63.2826ZM66.4626 97.69C66.1626 97.69 65.8226 98.07 65.4426 98.83C65.0826 99.57 64.7326 100.61 64.3926 101.95C64.0726 103.27 63.8026 104.74 63.5826 106.36C64.7626 105.34 65.6426 104.2 66.2226 102.94C66.8226 101.66 67.1226 100.5 67.1226 99.46C67.1226 98.28 66.9026 97.69 66.4626 97.69ZM101.465 111.88C100.185 113.84 98.6346 115.57 96.8146 117.07L99.4246 119.95C99.8846 120.43 100.115 120.93 100.115 121.45C100.115 121.95 99.9146 122.36 99.5146 122.68C99.1146 123.02 98.5846 123.19 97.9246 123.19C97.0046 123.19 96.3046 122.91 95.8246 122.35L93.3046 119.38C90.9446 120.56 88.6846 121.15 86.5246 121.15C84.9246 121.15 83.5246 120.9 82.3246 120.4C81.1246 119.9 80.1946 119.21 79.5346 118.33C78.8946 117.45 78.5746 116.47 78.5746 115.39C78.5746 113.93 79.0246 112.57 79.9246 111.31C80.8446 110.03 82.3346 108.77 84.3946 107.53C83.2346 105.41 82.6546 103.54 82.6546 101.92C82.6546 100.48 82.9546 99.21 83.5546 98.11C84.1546 97.01 84.9846 96.16 86.0446 95.56C87.1246 94.96 88.3546 94.66 89.7346 94.66C91.4946 94.66 92.8546 95.17 93.8146 96.19C94.7946 97.19 95.2846 98.57 95.2846 100.33C95.2846 101.79 94.8546 103.17 93.9946 104.47C93.1546 105.75 91.6546 107.06 89.4946 108.4C90.7746 110.14 92.4646 112.19 94.5646 114.55C95.8846 113.37 97.1946 111.88 98.4946 110.08C98.7146 109.76 98.9746 109.54 99.2746 109.42C99.5746 109.28 99.9446 109.21 100.385 109.21C101.545 109.21 102.125 109.54 102.125 110.2C102.125 110.62 101.905 111.18 101.465 111.88ZM89.5246 97.81C88.5846 97.81 87.8446 98.17 87.3046 98.89C86.7646 99.59 86.4946 100.47 86.4946 101.53C86.4946 102.79 86.9146 104.17 87.7546 105.67C89.3146 104.75 90.3746 103.86 90.9346 103C91.4946 102.14 91.7746 101.2 91.7746 100.18C91.7746 99.44 91.5846 98.86 91.2046 98.44C90.8246 98.02 90.2646 97.81 89.5246 97.81ZM86.7046 117.85C88.2646 117.85 89.7546 117.51 91.1746 116.83C89.0546 114.29 87.3846 112.12 86.1646 110.32C83.9046 111.8 82.7746 113.34 82.7746 114.94C82.7746 115.86 83.1246 116.58 83.8246 117.1C84.5246 117.6 85.4846 117.85 86.7046 117.85ZM136.602 108.04C137.062 108.04 137.392 108.14 137.592 108.34C137.812 108.54 137.922 108.8 137.922 109.12C137.922 109.64 137.762 110.1 137.442 110.5C137.142 110.9 136.662 111.11 136.002 111.13C134.402 111.17 132.982 111.05 131.742 110.77C130.322 113.75 128.602 116.23 126.582 118.21C124.582 120.17 122.572 121.15 120.552 121.15C118.472 121.15 116.922 119.94 115.902 117.52C114.882 115.1 114.372 111.83 114.372 107.71C114.372 104.19 114.622 101.03 115.122 98.23C115.302 97.19 115.552 96.49 115.872 96.13C116.212 95.75 116.782 95.56 117.582 95.56C118.902 95.56 119.562 96.13 119.562 97.27C119.562 97.39 119.542 97.61 119.502 97.93C118.902 101.53 118.602 104.79 118.602 107.71C118.602 110.77 118.852 113.1 119.352 114.7C119.872 116.28 120.642 117.07 121.662 117.07C122.702 117.07 123.832 116.35 125.052 114.91C126.272 113.47 127.392 111.66 128.412 109.48C127.192 108.72 126.272 107.74 125.652 106.54C125.032 105.32 124.722 103.92 124.722 102.34C124.722 100.76 124.962 99.43 125.442 98.35C125.942 97.25 126.612 96.43 127.452 95.89C128.312 95.35 129.262 95.08 130.302 95.08C131.582 95.08 132.592 95.54 133.332 96.46C134.092 97.38 134.472 98.64 134.472 100.24C134.472 102.54 133.972 105.05 132.972 107.77C134.032 107.95 135.242 108.04 136.602 108.04ZM127.752 102.13C127.752 104.09 128.382 105.54 129.642 106.48C130.422 104.24 130.812 102.39 130.812 100.93C130.812 100.09 130.702 99.48 130.482 99.1C130.262 98.7 129.962 98.5 129.582 98.5C129.042 98.5 128.602 98.82 128.262 99.46C127.922 100.08 127.752 100.97 127.752 102.13ZM148.383 114.31C148.643 114.31 148.843 114.43 148.982 114.67C149.143 114.91 149.223 115.24 149.223 115.66C149.223 116.46 149.033 117.08 148.653 117.52C147.913 118.42 146.863 119.25 145.503 120.01C144.163 120.77 142.723 121.15 141.183 121.15C139.083 121.15 137.453 120.58 136.293 119.44C135.133 118.3 134.552 116.74 134.552 114.76C134.552 113.38 134.843 112.1 135.423 110.92C136.003 109.72 136.803 108.77 137.823 108.07C138.863 107.37 140.033 107.02 141.333 107.02C142.493 107.02 143.423 107.37 144.123 108.07C144.823 108.75 145.173 109.68 145.173 110.86C145.173 112.24 144.673 113.43 143.673 114.43C142.693 115.41 141.023 116.19 138.663 116.77C139.163 117.69 140.113 118.15 141.513 118.15C142.413 118.15 143.433 117.84 144.573 117.22C145.733 116.58 146.733 115.75 147.573 114.73C147.813 114.45 148.083 114.31 148.383 114.31ZM140.823 109.96C140.083 109.96 139.453 110.39 138.933 111.25C138.433 112.11 138.183 113.15 138.183 114.37V114.43C139.363 114.15 140.293 113.73 140.973 113.17C141.653 112.61 141.993 111.96 141.993 111.22C141.993 110.84 141.883 110.54 141.663 110.32C141.463 110.08 141.183 109.96 140.823 109.96ZM161.993 114.37C162.253 114.37 162.453 114.5 162.593 114.76C162.753 115 162.833 115.31 162.833 115.69C162.833 116.15 162.763 116.51 162.623 116.77C162.483 117.03 162.263 117.26 161.963 117.46C160.243 118.62 158.983 119.48 158.183 120.04L156.263 121.33C155.503 125.47 154.503 128.72 153.263 131.08C152.043 133.46 150.483 134.65 148.583 134.65C147.563 134.65 146.733 134.33 146.093 133.69C145.453 133.07 145.133 132.25 145.133 131.23C145.133 129.81 145.693 128.28 146.813 126.64C147.933 125.02 150.033 123.02 153.113 120.64L153.293 119.47C152.953 120.01 152.503 120.43 151.943 120.73C151.403 121.01 150.863 121.15 150.323 121.15C149.083 121.15 148.093 120.7 147.353 119.8C146.613 118.9 146.243 117.72 146.243 116.26C146.243 114.66 146.613 113.15 147.353 111.73C148.093 110.29 149.073 109.14 150.293 108.28C151.533 107.4 152.843 106.96 154.223 106.96C154.663 106.96 154.953 107.05 155.093 107.23C155.253 107.39 155.383 107.69 155.483 108.13C155.863 108.05 156.303 108.01 156.803 108.01C157.303 108.01 157.653 108.09 157.853 108.25C158.073 108.39 158.183 108.68 158.183 109.12C158.183 109.36 158.173 109.55 158.153 109.69C158.073 110.31 157.823 111.88 157.403 114.4C157.323 114.88 157.233 115.41 157.133 115.99C157.053 116.55 156.963 117.15 156.863 117.79C158.403 116.59 159.883 115.53 161.303 114.61C161.563 114.45 161.793 114.37 161.993 114.37ZM151.403 118.12C151.863 118.12 152.303 117.84 152.723 117.28C153.143 116.72 153.443 115.92 153.623 114.88L154.583 109.75C153.763 109.77 153.003 110.09 152.303 110.71C151.603 111.31 151.043 112.11 150.623 113.11C150.203 114.11 149.993 115.17 149.993 116.29C149.993 116.91 150.113 117.37 150.353 117.67C150.613 117.97 150.963 118.12 151.403 118.12ZM148.913 131.74C149.413 131.74 149.973 131.14 150.593 129.94C151.233 128.74 151.843 126.83 152.423 124.21C150.883 125.53 149.773 126.72 149.093 127.78C148.413 128.84 148.073 129.77 148.073 130.57C148.073 130.91 148.133 131.19 148.253 131.41C148.393 131.63 148.613 131.74 148.913 131.74ZM176.056 114.37C176.316 114.37 176.516 114.5 176.656 114.76C176.816 115 176.896 115.31 176.896 115.69C176.896 116.15 176.826 116.51 176.686 116.77C176.546 117.03 176.326 117.26 176.026 117.46C174.306 118.62 173.046 119.48 172.246 120.04L170.326 121.33C169.566 125.47 168.566 128.72 167.326 131.08C166.106 133.46 164.546 134.65 162.646 134.65C161.626 134.65 160.796 134.33 160.156 133.69C159.516 133.07 159.196 132.25 159.196 131.23C159.196 129.81 159.756 128.28 160.876 126.64C161.996 125.02 164.096 123.02 167.176 120.64L167.356 119.47C167.016 120.01 166.566 120.43 166.006 120.73C165.466 121.01 164.926 121.15 164.386 121.15C163.146 121.15 162.156 120.7 161.416 119.8C160.676 118.9 160.306 117.72 160.306 116.26C160.306 114.66 160.676 113.15 161.416 111.73C162.156 110.29 163.136 109.14 164.356 108.28C165.596 107.4 166.906 106.96 168.286 106.96C168.726 106.96 169.016 107.05 169.156 107.23C169.316 107.39 169.446 107.69 169.546 108.13C169.926 108.05 170.366 108.01 170.866 108.01C171.366 108.01 171.716 108.09 171.916 108.25C172.136 108.39 172.246 108.68 172.246 109.12C172.246 109.36 172.236 109.55 172.216 109.69C172.136 110.31 171.886 111.88 171.466 114.4C171.386 114.88 171.296 115.41 171.196 115.99C171.116 116.55 171.026 117.15 170.926 117.79C172.466 116.59 173.946 115.53 175.366 114.61C175.626 114.45 175.856 114.37 176.056 114.37ZM165.466 118.12C165.926 118.12 166.366 117.84 166.786 117.28C167.206 116.72 167.506 115.92 167.686 114.88L168.646 109.75C167.826 109.77 167.066 110.09 166.366 110.71C165.666 111.31 165.106 112.11 164.686 113.11C164.266 114.11 164.056 115.17 164.056 116.29C164.056 116.91 164.176 117.37 164.416 117.67C164.676 117.97 165.026 118.12 165.466 118.12ZM162.976 131.74C163.476 131.74 164.036 131.14 164.656 129.94C165.296 128.74 165.906 126.83 166.486 124.21C164.946 125.53 163.836 126.72 163.156 127.78C162.476 128.84 162.136 129.77 162.136 130.57C162.136 130.91 162.196 131.19 162.316 131.41C162.456 131.63 162.676 131.74 162.976 131.74ZM178.659 105.04C177.819 105.04 177.189 104.85 176.769 104.47C176.349 104.07 176.139 103.52 176.139 102.82C176.139 102.12 176.409 101.54 176.949 101.08C177.509 100.6 178.199 100.36 179.019 100.36C179.759 100.36 180.359 100.54 180.819 100.9C181.279 101.26 181.509 101.77 181.509 102.43C181.509 103.23 181.249 103.87 180.729 104.35C180.209 104.81 179.519 105.04 178.659 105.04ZM178.419 121.15C177.119 121.15 176.169 120.69 175.569 119.77C174.989 118.85 174.699 117.63 174.699 116.11C174.699 115.21 174.809 114.06 175.029 112.66C175.269 111.24 175.569 109.92 175.929 108.7C176.109 108.06 176.349 107.62 176.649 107.38C176.949 107.14 177.429 107.02 178.089 107.02C179.109 107.02 179.619 107.36 179.619 108.04C179.619 108.54 179.429 109.7 179.049 111.52C178.569 113.72 178.329 115.21 178.329 115.99C178.329 116.59 178.409 117.05 178.569 117.37C178.729 117.69 178.999 117.85 179.379 117.85C179.739 117.85 180.189 117.6 180.729 117.1C181.269 116.6 181.989 115.81 182.889 114.73C183.129 114.45 183.399 114.31 183.699 114.31C183.959 114.31 184.159 114.43 184.299 114.67C184.459 114.91 184.539 115.24 184.539 115.66C184.539 116.46 184.349 117.08 183.969 117.52C181.989 119.94 180.139 121.15 178.419 121.15ZM192.852 115.21C193.112 115.21 193.312 115.33 193.452 115.57C193.612 115.81 193.692 116.14 193.692 116.56C193.692 117.28 193.522 117.9 193.182 118.42C192.622 119.28 191.882 119.95 190.962 120.43C190.062 120.91 188.982 121.15 187.722 121.15C185.802 121.15 184.312 120.58 183.252 119.44C182.192 118.28 181.662 116.72 181.662 114.76C181.662 113.38 181.952 112.1 182.532 110.92C183.112 109.72 183.912 108.77 184.932 108.07C185.972 107.37 187.142 107.02 188.442 107.02C189.602 107.02 190.532 107.37 191.232 108.07C191.932 108.75 192.282 109.68 192.282 110.86C192.282 112.24 191.782 113.43 190.782 114.43C189.802 115.41 188.122 116.19 185.742 116.77C186.222 117.69 187.032 118.15 188.172 118.15C188.992 118.15 189.662 117.96 190.182 117.58C190.722 117.2 191.342 116.56 192.042 115.66C192.282 115.36 192.552 115.21 192.852 115.21ZM187.932 109.96C187.192 109.96 186.562 110.39 186.042 111.25C185.542 112.11 185.292 113.15 185.292 114.37V114.43C186.472 114.15 187.402 113.73 188.082 113.17C188.762 112.61 189.102 111.96 189.102 111.22C189.102 110.84 188.992 110.54 188.772 110.32C188.572 110.08 188.292 109.96 187.932 109.96ZM226.175 96.1C226.795 96.22 227.255 96.43 227.555 96.73C227.875 97.03 228.035 97.38 228.035 97.78C228.035 98.44 227.845 98.92 227.465 99.22C227.105 99.52 226.525 99.64 225.725 99.58C223.925 99.44 222.515 99.35 221.495 99.31C220.495 99.25 219.175 99.21 217.535 99.19C216.795 102.87 216.115 106.57 215.495 110.29C215.275 111.65 215.045 113.23 214.805 115.03C214.565 116.81 214.405 118.25 214.325 119.35C214.285 119.93 214.045 120.38 213.605 120.7C213.165 121 212.635 121.15 212.015 121.15C211.355 121.15 210.845 120.99 210.485 120.67C210.125 120.35 209.945 119.93 209.945 119.41C209.945 118.93 210.015 118.14 210.155 117.04C210.315 115.92 210.495 114.75 210.695 113.53C210.915 112.31 211.085 111.25 211.205 110.35C211.425 108.83 211.675 107.32 211.955 105.82C212.235 104.32 212.515 102.9 212.795 101.56C212.855 101.26 212.925 100.92 213.005 100.54C213.085 100.14 213.175 99.7 213.275 99.22C211.315 99.28 209.775 99.44 208.655 99.7C207.535 99.96 206.735 100.33 206.255 100.81C205.795 101.27 205.565 101.87 205.565 102.61C205.565 103.29 205.765 103.94 206.165 104.56C206.245 104.7 206.285 104.85 206.285 105.01C206.285 105.39 206.055 105.75 205.595 106.09C205.155 106.41 204.695 106.57 204.215 106.57C203.875 106.57 203.595 106.47 203.375 106.27C202.975 105.93 202.645 105.45 202.385 104.83C202.125 104.19 201.995 103.47 201.995 102.67C201.995 100.97 202.545 99.61 203.645 98.59C204.765 97.55 206.455 96.79 208.715 96.31C210.995 95.83 213.915 95.59 217.475 95.59C219.675 95.59 221.425 95.63 222.725 95.71C224.045 95.79 225.195 95.92 226.175 96.1ZM235.908 111.79C236.168 111.79 236.368 111.92 236.508 112.18C236.648 112.44 236.718 112.77 236.718 113.17C236.718 114.13 236.428 114.7 235.848 114.88C234.648 115.3 233.328 115.54 231.888 115.6C231.508 117.28 230.758 118.63 229.638 119.65C228.518 120.65 227.248 121.15 225.828 121.15C224.628 121.15 223.598 120.86 222.738 120.28C221.898 119.7 221.258 118.93 220.818 117.97C220.378 117.01 220.158 115.97 220.158 114.85C220.158 113.33 220.448 111.98 221.028 110.8C221.608 109.6 222.408 108.67 223.428 108.01C224.448 107.33 225.578 106.99 226.818 106.99C228.338 106.99 229.558 107.52 230.478 108.58C231.418 109.62 231.968 110.91 232.128 112.45C233.068 112.39 234.188 112.19 235.488 111.85C235.648 111.81 235.788 111.79 235.908 111.79ZM226.068 117.97C226.708 117.97 227.258 117.71 227.718 117.19C228.198 116.67 228.518 115.92 228.678 114.94C228.058 114.52 227.578 113.97 227.238 113.29C226.918 112.61 226.758 111.89 226.758 111.13C226.758 110.81 226.788 110.49 226.848 110.17H226.698C225.898 110.17 225.228 110.56 224.688 111.34C224.168 112.1 223.908 113.18 223.908 114.58C223.908 115.68 224.118 116.52 224.538 117.1C224.978 117.68 225.488 117.97 226.068 117.97ZM251.183 114.31C251.443 114.31 251.643 114.43 251.783 114.67C251.943 114.91 252.023 115.24 252.023 115.66C252.023 116.46 251.833 117.08 251.453 117.52C250.633 118.52 249.733 119.38 248.753 120.1C247.773 120.8 246.803 121.15 245.843 121.15C244.323 121.15 243.163 120.26 242.363 118.48C241.523 119.54 240.783 120.25 240.143 120.61C239.523 120.97 238.793 121.15 237.953 121.15C236.733 121.15 235.723 120.7 234.923 119.8C234.143 118.88 233.753 117.69 233.753 116.23C233.753 114.63 234.093 113.15 234.773 111.79C235.453 110.41 236.383 109.29 237.563 108.43C238.763 107.55 240.103 107.03 241.583 106.87C241.963 102.99 242.683 99.68 243.743 96.94C244.823 94.18 246.233 92.8 247.973 92.8C248.833 92.8 249.543 93.19 250.103 93.97C250.683 94.75 250.973 95.93 250.973 97.51C250.973 99.75 250.423 102.37 249.323 105.37C248.223 108.37 246.753 111.45 244.913 114.61C244.993 115.77 245.163 116.6 245.423 117.1C245.703 117.6 246.053 117.85 246.473 117.85C247.013 117.85 247.563 117.61 248.123 117.13C248.683 116.65 249.433 115.85 250.373 114.73C250.613 114.45 250.883 114.31 251.183 114.31ZM247.643 95.74C247.263 95.74 246.883 96.42 246.503 97.78C246.123 99.12 245.793 100.88 245.513 103.06C245.253 105.24 245.063 107.52 244.943 109.9C247.183 105.02 248.303 101.1 248.303 98.14C248.303 97.38 248.233 96.79 248.093 96.37C247.973 95.95 247.823 95.74 247.643 95.74ZM239.003 118.12C239.383 118.12 239.763 117.97 240.143 117.67C240.523 117.35 241.003 116.77 241.583 115.93C241.383 114.85 241.283 113.64 241.283 112.3C241.283 111.82 241.303 111.04 241.343 109.96C240.243 110.3 239.323 111.04 238.583 112.18C237.863 113.3 237.503 114.55 237.503 115.93C237.503 117.39 238.003 118.12 239.003 118.12ZM252.98 121.15C251.74 121.15 250.75 120.7 250.01 119.8C249.27 118.9 248.9 117.72 248.9 116.26C248.9 114.66 249.27 113.15 250.01 111.73C250.75 110.29 251.73 109.14 252.95 108.28C254.19 107.4 255.5 106.96 256.88 106.96C257.32 106.96 257.61 107.05 257.75 107.23C257.91 107.39 258.04 107.69 258.14 108.13C258.56 108.05 259 108.01 259.46 108.01C260.44 108.01 260.93 108.36 260.93 109.06C260.93 109.48 260.78 110.48 260.48 112.06C260.02 114.36 259.79 115.96 259.79 116.86C259.79 117.16 259.86 117.4 260 117.58C260.16 117.76 260.36 117.85 260.6 117.85C260.98 117.85 261.44 117.61 261.98 117.13C262.52 116.63 263.25 115.83 264.17 114.73C264.41 114.45 264.68 114.31 264.98 114.31C265.24 114.31 265.44 114.43 265.58 114.67C265.74 114.91 265.82 115.24 265.82 115.66C265.82 116.46 265.63 117.08 265.25 117.52C264.43 118.54 263.56 119.4 262.64 120.1C261.72 120.8 260.83 121.15 259.97 121.15C259.31 121.15 258.7 120.93 258.14 120.49C257.6 120.03 257.19 119.41 256.91 118.63C255.87 120.31 254.56 121.15 252.98 121.15ZM254.06 118.12C254.5 118.12 254.92 117.86 255.32 117.34C255.72 116.82 256.01 116.13 256.19 115.27L257.3 109.75C256.46 109.77 255.68 110.09 254.96 110.71C254.26 111.31 253.7 112.11 253.28 113.11C252.86 114.11 252.65 115.17 252.65 116.29C252.65 116.91 252.77 117.37 253.01 117.67C253.27 117.97 253.62 118.12 254.06 118.12ZM273.881 107.02C274.341 107.02 274.661 107.08 274.841 107.2C275.021 107.32 275.111 107.52 275.111 107.8C275.111 108.28 274.851 109.99 274.331 112.93C273.871 115.75 273.601 117.42 273.521 117.94C272.781 123.08 271.761 127.15 270.461 130.15C269.161 133.15 267.431 134.65 265.271 134.65C264.251 134.65 263.421 134.33 262.781 133.69C262.141 133.07 261.821 132.25 261.821 131.23C261.821 130.29 262.031 129.33 262.451 128.35C262.891 127.37 263.691 126.24 264.851 124.96C266.031 123.7 267.691 122.25 269.831 120.61L269.921 119.92C270.061 119.18 270.221 118.12 270.401 116.74C270.001 118.18 269.441 119.28 268.721 120.04C268.001 120.78 267.241 121.15 266.441 121.15C265.541 121.15 264.801 120.74 264.221 119.92C263.661 119.08 263.381 118.04 263.381 116.8C263.381 115.3 263.481 113.93 263.681 112.69C263.881 111.43 264.211 110.1 264.671 108.7C264.871 108.1 265.151 107.67 265.511 107.41C265.871 107.15 266.441 107.02 267.221 107.02C267.661 107.02 267.961 107.09 268.121 107.23C268.301 107.37 268.391 107.58 268.391 107.86C268.391 108.02 268.281 108.56 268.061 109.48C267.861 110.22 267.701 110.89 267.581 111.49C267.421 112.31 267.281 113.1 267.161 113.86C267.041 114.6 266.981 115.21 266.981 115.69C266.981 116.45 267.191 116.83 267.611 116.83C267.911 116.83 268.281 116.53 268.721 115.93C269.181 115.33 269.661 114.42 270.161 113.2C270.681 111.98 271.181 110.48 271.661 108.7C271.821 108.1 272.061 107.67 272.381 107.41C272.721 107.15 273.221 107.02 273.881 107.02ZM265.601 131.74C266.101 131.74 266.661 131.16 267.281 130C267.901 128.84 268.521 126.91 269.141 124.21C267.601 125.51 266.481 126.69 265.781 127.75C265.101 128.83 264.761 129.77 264.761 130.57C264.761 130.91 264.821 131.19 264.941 131.41C265.081 131.63 265.301 131.74 265.601 131.74Z" fill="url(#paint0_linear)"/>
<defs>
<linearGradient id="paint0_linear" x1="2.11596e-06" y1="109.5" x2="290.125" y2="109.5" gradientUnits="userSpaceOnUse">
<stop stop-color="#ADCB74"/>
<stop offset="1" stop-color="#1FB55B"/>
</linearGradient>
<clipPath id="clip0">
<rect width="86.1248" height="86.2544" fill="white" transform="translate(112.209)"/>
</clipPath>
<clipPath id="clip1">
<rect width="86.1248" height="86.2544" fill="white" transform="translate(77.3179 1.12311)"/>
</clipPath>
</defs>
</svg>
