<svg width="269" height="137" viewBox="0 0 269 137" fill="none" xmlns="http://www.w3.org/2000/svg">
<path d="M94.2642 29.4961C84.7418 34.8989 72.6534 31.8869 66.6988 22.8739C66.2576 22.2062 66.5053 21.3098 67.2266 20.9644C76.9599 16.3055 88.8724 19.9542 94.2642 29.4961Z" fill="#ADCB74"/>
<path d="M97.9061 4.26313L94.2632 29.4954C103.785 24.0926 107.427 12.1562 102.778 2.40292C102.434 1.68244 101.541 1.42976 100.876 1.87048C99.799 2.58486 98.8076 3.38751 97.9061 4.26313V4.26313Z" fill="#1FB55B"/>
<path d="M97.907 4.26308C91.2797 10.7009 89.517 21.0945 94.2641 29.4953C101.578 25.3453 103.158 14.0952 97.907 4.26308V4.26308Z" fill="#7CC466"/>
<g clip-path="url(#clip0)">
<path d="M147.271 86.2543C165.321 86.2543 179.954 71.5997 179.954 53.5224C179.954 35.445 165.321 20.7904 147.271 20.7904C129.221 20.7904 114.588 35.445 114.588 53.5224C114.588 71.5997 129.221 86.2543 147.271 86.2543Z" fill="#FEE901"/>
<path d="M147.271 81.045C162.449 81.045 174.753 68.7227 174.753 53.5224C174.753 38.3221 162.449 25.9998 147.271 25.9998C132.094 25.9998 119.79 38.3221 119.79 53.5224C119.79 68.7227 132.094 81.045 147.271 81.045Z" fill="#FEFF9E"/>
<path d="M152.986 31.9509C151.162 31.4671 149.247 31.209 147.271 31.209V49.3207C148.251 49.3207 149.23 48.7846 149.674 47.7127L157.338 41.5914L154.737 35.4701C155.342 34.008 154.513 32.3561 152.986 31.9509Z" fill="#FEE901"/>
<path d="M149.108 31.9509C148.522 31.4671 147.906 31.209 147.271 31.209C145.295 31.209 143.38 31.4671 141.556 31.9509C140.029 32.3561 139.2 34.008 139.805 35.4703L137.204 41.5916L144.868 47.7129C145.312 48.7848 146.291 49.3209 147.271 49.3209C147.586 49.3209 147.901 48.7848 148.043 47.7129L149.671 35.4703C149.865 34.008 149.599 32.3561 149.108 31.9509V31.9509Z" fill="#FEF44E"/>
<path d="M136.082 34.2219C134.451 35.1714 132.914 36.3453 131.517 37.7445L144.305 50.5515C144.998 49.8576 145.312 48.7848 144.869 47.7129L139.805 35.4703C139.2 34.008 137.448 33.4267 136.082 34.2219V34.2219Z" fill="#FEE901"/>
<path d="M133.34 36.9683C132.584 37.0414 131.966 37.2948 131.517 37.7445C130.12 39.1436 128.948 40.6826 128 42.316C127.206 43.6845 127.786 45.4392 129.246 46.0449L131.729 52.215L141.47 51.1158C142.541 51.5598 143.612 51.245 144.305 50.5511C144.527 50.3282 144.372 49.7261 143.715 48.8673L136.223 39.0579C135.328 37.8865 133.973 36.907 133.34 36.9683V36.9683Z" fill="#FEF44E"/>
<path d="M125.732 47.799C125.249 49.6254 124.991 51.5437 124.991 53.5224H143.076C143.076 52.5411 142.54 51.56 141.47 51.116L129.246 46.0449C127.786 45.4392 126.137 46.2691 125.732 47.799V47.799Z" fill="#FEE901"/>
<path d="M125.732 51.6828C125.249 52.2699 124.991 52.8863 124.991 53.5224C124.991 55.5011 125.249 57.4193 125.732 59.2457C126.137 60.7757 127.786 61.6055 129.246 60.9999L135.358 63.6045L141.47 55.9288C142.541 55.4847 143.076 54.5035 143.076 53.5224C143.076 53.2071 142.541 52.8917 141.47 52.749L129.246 51.1192C127.786 50.9245 126.137 51.191 125.732 51.6828V51.6828Z" fill="#FEF44E"/>
<path d="M128 64.7287C128.948 66.3623 130.12 67.9012 131.517 69.3002L144.305 56.4932C143.612 55.7994 142.541 55.4845 141.471 55.9286L129.247 60.9997C127.786 61.6055 127.206 63.3602 128 64.7287V64.7287Z" fill="#FEE901"/>
<path d="M130.742 67.475C130.815 68.2321 131.068 68.8506 131.517 69.3004C132.914 70.6994 134.451 71.8734 136.082 72.8229C137.448 73.6182 139.2 73.037 139.805 71.5746L145.966 69.088L144.868 59.3321C145.312 58.2602 144.997 57.1874 144.304 56.4936C144.082 56.2706 143.481 56.4265 142.623 57.0836L132.828 64.588C131.659 65.484 130.681 66.8407 130.742 67.475V67.475Z" fill="#FEF44E"/>
<path d="M141.556 75.0938C143.38 75.5776 145.295 75.8356 147.271 75.8356V57.724C146.291 57.724 145.312 58.26 144.868 59.3319L139.805 71.5746C139.2 73.0366 140.029 74.6885 141.556 75.0938Z" fill="#FEE901"/>
<path d="M145.434 75.0939C146.021 75.5776 146.636 75.8357 147.271 75.8357C149.247 75.8357 151.162 75.5776 152.986 75.0939C154.514 74.6886 155.342 73.0367 154.737 71.5744L157.338 65.4531L149.674 59.3318C149.231 58.2599 148.251 57.7239 147.271 57.7239C146.956 57.7239 146.641 58.2599 146.499 59.3318L144.872 71.5744C144.677 73.0367 144.943 74.6886 145.434 75.0939V75.0939Z" fill="#FEF44E"/>
<path d="M158.46 72.8227C160.092 71.8732 161.628 70.6994 163.025 69.3002L150.237 56.4932C149.545 57.1871 149.23 58.2599 149.674 59.3318L154.737 71.5744C155.342 73.0367 157.094 73.618 158.46 72.8227Z" fill="#FEE901"/>
<path d="M161.203 70.0764C161.959 70.0033 162.576 69.7499 163.025 69.3002C164.422 67.9011 165.595 66.3621 166.543 64.7286C167.337 63.3602 166.757 61.6055 165.296 60.9998L162.813 54.8297L153.072 55.9289C152.002 55.4849 150.931 55.7997 150.238 56.4936C150.015 56.7165 150.171 57.3186 150.827 58.1774L158.32 67.9867C159.215 69.1581 160.57 70.1377 161.203 70.0764V70.0764Z" fill="#FEF44E"/>
<path d="M168.81 59.2457C169.293 57.4193 169.551 55.5011 169.551 53.5224H151.466C151.466 54.5037 152.002 55.4848 153.072 55.9288L165.296 60.9999C166.756 61.6056 168.405 60.7757 168.81 59.2457V59.2457Z" fill="#FEE901"/>
<path d="M168.81 55.362C169.293 54.7749 169.551 54.1584 169.551 53.5224C169.551 51.5437 169.293 49.6255 168.81 47.7991C168.406 46.2691 166.756 45.4392 165.296 46.0449L159.184 43.4402L153.072 51.116C152.002 51.56 151.466 52.5413 151.466 53.5224C151.466 53.8377 152.002 54.1531 153.072 54.2958L165.296 55.9256C166.756 56.1203 168.406 55.8537 168.81 55.362V55.362Z" fill="#FEF44E"/>
<path d="M166.542 42.316C165.594 40.6824 164.422 39.1436 163.025 37.7445L150.237 50.5515C150.93 51.2454 152.001 51.5602 153.072 51.1162L165.296 46.0451C166.756 45.4392 167.336 43.6845 166.542 42.316Z" fill="#FEE901"/>
<path d="M163.8 39.5697C163.727 38.8126 163.474 38.1941 163.025 37.7444C161.628 36.3453 160.092 35.1713 158.461 34.2218C157.094 33.4265 155.342 34.0077 154.738 35.4701L149.674 47.7128C149.231 48.7847 149.545 49.8574 150.238 50.5513C150.461 50.7743 151.062 50.6183 151.919 49.9613L161.714 42.4569C162.884 41.5607 163.862 40.204 163.8 39.5697V39.5697Z" fill="#FEF44E"/>
</g>
<g clip-path="url(#clip1)">
<path d="M112.38 87.3775C130.43 87.3775 145.063 72.7229 145.063 54.6455C145.063 36.5682 130.43 21.9136 112.38 21.9136C94.3299 21.9136 79.6973 36.5682 79.6973 54.6455C79.6973 72.7229 94.3299 87.3775 112.38 87.3775Z" fill="#FF7A3C"/>
<path d="M112.38 82.1682C127.558 82.1682 139.862 69.8459 139.862 54.6456C139.862 39.4452 127.558 27.1229 112.38 27.1229C97.2027 27.1229 84.8989 39.4452 84.8989 54.6456C84.8989 69.8459 97.2027 82.1682 112.38 82.1682Z" fill="#FFE8C2"/>
<path d="M118.095 33.074C116.271 32.5903 114.356 32.3322 112.38 32.3322V50.4438C113.36 50.4438 114.339 49.9078 114.783 48.8359L122.447 42.7146L119.846 36.5933C120.451 35.1312 119.622 33.4793 118.095 33.074Z" fill="#FF7A3C"/>
<path d="M114.217 33.074C113.631 32.5903 113.015 32.3322 112.38 32.3322C110.404 32.3322 108.489 32.5903 106.665 33.074C105.138 33.4793 104.309 35.1312 104.914 36.5934L102.313 42.7148L109.977 48.8361C110.421 49.908 111.4 50.444 112.38 50.444C112.695 50.444 113.01 49.908 113.152 48.8361L114.78 36.5934C114.974 35.1312 114.708 33.4793 114.217 33.074V33.074Z" fill="#FF9A42"/>
<path d="M101.191 35.3451C99.5595 36.2946 98.0229 37.4684 96.626 38.8677L109.414 51.6746C110.107 50.9807 110.421 49.908 109.978 48.8361L104.914 36.5934C104.309 35.1312 102.557 34.5498 101.191 35.3451V35.3451Z" fill="#FF7A3C"/>
<path d="M98.4484 38.0915C97.6924 38.1646 97.0749 38.418 96.6258 38.8677C95.2288 40.2668 94.0566 41.8058 93.1085 43.4393C92.3144 44.8078 92.8948 46.5624 94.355 47.1681L96.8378 53.3382L106.579 52.239C107.65 52.683 108.721 52.3682 109.414 51.6743C109.636 51.4514 109.48 50.8494 108.824 49.9905L101.331 40.1812C100.436 39.0098 99.0818 38.0302 98.4484 38.0915V38.0915Z" fill="#FF9A42"/>
<path d="M90.8408 48.9222C90.3577 50.7486 90.1001 52.6669 90.1001 54.6455H108.185C108.185 53.6643 107.649 52.6832 106.579 52.2392L94.3548 47.1681C92.8949 46.5624 91.2455 47.3922 90.8408 48.9222V48.9222Z" fill="#FF7A3C"/>
<path d="M90.8408 52.806C90.3577 53.3931 90.1001 54.0095 90.1001 54.6456C90.1001 56.6242 90.3577 58.5425 90.8408 60.3689C91.2455 61.8989 92.8949 62.7287 94.3549 62.123L100.467 64.7277L106.579 57.0519C107.649 56.6079 108.185 55.6267 108.185 54.6456C108.185 54.3302 107.649 54.0149 106.579 53.8721L94.3549 52.2423C92.8949 52.0477 91.2455 52.3142 90.8408 52.806V52.806Z" fill="#FF9A42"/>
<path d="M93.1085 65.8518C94.0566 67.4855 95.2286 69.0243 96.6258 70.4234L109.413 57.6164C108.721 56.9225 107.649 56.6077 106.579 57.0517L94.355 62.1228C92.8949 62.7287 92.3144 64.4834 93.1085 65.8518V65.8518Z" fill="#FF7A3C"/>
<path d="M95.8509 68.5982C95.9239 69.3553 96.1768 69.9738 96.6259 70.4235C98.0228 71.8226 99.5595 72.9966 101.191 73.9461C102.557 74.7414 104.309 74.1602 104.914 72.6977L111.075 70.2112L109.977 60.4553C110.42 59.3834 110.106 58.3106 109.413 57.6167C109.191 57.3938 108.59 57.5497 107.732 58.2068L97.9374 65.7112C96.7677 66.6072 95.7897 67.9638 95.8509 68.5982V68.5982Z" fill="#FF9A42"/>
<path d="M106.665 76.217C108.489 76.7008 110.404 76.9588 112.38 76.9588V58.8472C111.4 58.8472 110.421 59.3832 109.977 60.4551L104.914 72.6977C104.309 74.1598 105.138 75.8117 106.665 76.217Z" fill="#FF7A3C"/>
<path d="M110.543 76.217C111.129 76.7008 111.745 76.9588 112.38 76.9588C114.356 76.9588 116.271 76.7008 118.095 76.217C119.622 75.8118 120.451 74.1599 119.846 72.6976L122.447 66.5763L114.783 60.455C114.339 59.3831 113.36 58.847 112.38 58.847C112.065 58.847 111.75 59.3831 111.608 60.455L109.98 72.6976C109.786 74.1599 110.052 75.8118 110.543 76.217V76.217Z" fill="#FF9A42"/>
<path d="M123.569 73.9459C125.201 72.9964 126.737 71.8226 128.134 70.4234L115.346 57.6164C114.653 58.3103 114.339 59.3831 114.782 60.455L119.846 72.6976C120.451 74.1598 122.203 74.7412 123.569 73.9459Z" fill="#FF7A3C"/>
<path d="M126.312 71.1995C127.068 71.1264 127.685 70.8731 128.134 70.4233C129.531 69.0243 130.704 67.4853 131.652 65.8518C132.446 64.4833 131.865 62.7286 130.405 62.123L127.922 55.9529L118.181 57.052C117.111 56.608 116.04 56.9229 115.347 57.6167C115.124 57.8397 115.28 58.4417 115.936 59.3006L123.429 69.1099C124.324 70.2813 125.678 71.2608 126.312 71.1995V71.1995Z" fill="#FF9A42"/>
<path d="M133.919 60.3689C134.402 58.5425 134.66 56.6242 134.66 54.6456H116.575C116.575 55.6268 117.11 56.6079 118.181 57.0519L130.405 62.123C131.865 62.7287 133.514 61.8989 133.919 60.3689V60.3689Z" fill="#FF7A3C"/>
<path d="M133.919 56.4851C134.402 55.8981 134.66 55.2816 134.66 54.6456C134.66 52.6669 134.402 50.7486 133.919 48.9222C133.514 47.3923 131.865 46.5624 130.405 47.1681L124.293 44.5634L118.181 52.2392C117.11 52.6832 116.575 53.6645 116.575 54.6456C116.575 54.9609 117.11 55.2762 118.181 55.419L130.405 57.0488C131.865 57.2434 133.514 56.9769 133.919 56.4851V56.4851Z" fill="#FF9A42"/>
<path d="M131.651 43.4392C130.703 41.8056 129.531 40.2667 128.134 38.8677L115.346 51.6746C116.039 52.3685 117.11 52.6833 118.18 52.2393L130.405 47.1682C131.865 46.5624 132.445 44.8077 131.651 43.4392Z" fill="#FF7A3C"/>
<path d="M128.909 40.6929C128.836 39.9358 128.583 39.3173 128.134 38.8675C126.737 37.4685 125.201 36.2945 123.57 35.345C122.203 34.5497 120.451 35.1309 119.846 36.5933L114.783 48.8359C114.34 49.9078 114.654 50.9806 115.347 51.6745C115.569 51.8974 116.171 51.7415 117.028 51.0844L126.823 43.5801C127.993 42.6839 128.971 41.3272 128.909 40.6929V40.6929Z" fill="#FF9A42"/>
</g>
<path d="M12.7209 101.2C14.1909 101.2 15.4276 101.41 16.4309 101.83C17.4343 102.25 18.2276 103.09 18.8109 104.35C19.4176 105.587 19.7209 107.383 19.7209 109.74C19.7209 112.61 19.2076 114.71 18.1809 116.04C17.1776 117.347 15.5093 118 13.1759 118H10.6559C9.37259 118 8.42759 118.303 7.82092 118.91C7.23758 119.54 6.94592 120.31 6.94592 121.22V123.775C6.94592 125.128 6.66592 126.12 6.10592 126.75C5.56925 127.403 4.88092 127.73 4.04092 127.73C3.43425 127.73 2.89758 127.578 2.43092 127.275C1.98758 126.995 1.70758 126.727 1.59092 126.47C2.08092 126.167 2.51258 125.688 2.88592 125.035C3.25925 124.405 3.44592 123.577 3.44592 122.55V121.01C3.44592 120.1 3.64425 119.132 4.04092 118.105C4.46092 117.078 5.17258 116.308 6.17592 115.795V107.535C6.17592 105.108 6.72425 103.452 7.82092 102.565C8.94092 101.655 10.5743 101.2 12.7209 101.2ZM12.3359 115.235C13.9459 115.235 14.9959 114.64 15.4859 113.45C15.9759 112.237 16.2209 110.953 16.2209 109.6C16.2209 107.71 15.9293 106.298 15.3459 105.365C14.7859 104.432 13.8993 103.965 12.6859 103.965C11.7993 103.965 11.0759 104.233 10.5159 104.77C9.97925 105.307 9.71092 106.182 9.71092 107.395V115.235H12.3359ZM40.8976 118H37.8176V120.205C37.8176 121.022 37.6659 121.862 37.3626 122.725C37.0592 123.612 36.4992 124.382 35.6826 125.035C34.8659 125.688 33.7459 126.015 32.3226 126.015C31.0626 126.015 30.0476 125.747 29.2776 125.21C28.5076 124.673 28.0292 124.067 27.8426 123.39C28.1459 123.53 28.5426 123.658 29.0326 123.775C29.5226 123.892 29.9892 123.95 30.4326 123.95C31.5526 123.95 32.4742 123.647 33.1976 123.04C33.9209 122.457 34.2826 121.675 34.2826 120.695L34.3176 118L30.7476 118.07C28.4609 118.07 26.8042 117.405 25.7776 116.075C24.7742 114.722 24.2726 112.61 24.2726 109.74C24.2726 107.407 24.5642 105.622 25.1476 104.385C25.7542 103.125 26.5592 102.285 27.5626 101.865C28.5659 101.422 29.8026 101.2 31.2726 101.2C33.4192 101.2 35.0409 101.655 36.1376 102.565C37.2576 103.475 37.8176 105.143 37.8176 107.57V115.235H40.8976V118ZM27.7726 109.635C27.7726 111.012 28.0176 112.295 28.5076 113.485C28.9976 114.652 30.0476 115.235 31.6576 115.235H34.2826V107.43C34.2826 106.193 34.0026 105.307 33.4426 104.77C32.9059 104.233 32.1942 103.965 31.3076 103.965C30.1176 103.965 29.2309 104.432 28.6476 105.365C28.0642 106.298 27.7726 107.722 27.7726 109.635ZM52.7289 115.235V118H48.9839C47.6539 118 46.5456 117.673 45.6589 117.02C44.7489 117.603 43.7573 117.93 42.6839 118H40.8989V115.235H42.6839C43.4773 115.212 44.2239 115.013 44.9239 114.64V102.985C44.9239 101.795 45.5073 101.2 46.6739 101.2C47.2339 101.2 47.6656 101.352 47.9689 101.655C48.2723 101.958 48.4239 102.402 48.4239 102.985V112.505C48.4239 114.325 48.7856 115.235 49.5089 115.235H52.7289ZM44.0489 125C43.4889 125 42.9989 124.79 42.5789 124.37C42.1823 123.973 41.9839 123.495 41.9839 122.935C41.9839 122.352 42.1823 121.85 42.5789 121.43C42.9989 121.033 43.4889 120.835 44.0489 120.835C44.6323 120.835 45.1223 121.033 45.5189 121.43C45.9156 121.85 46.1139 122.352 46.1139 122.935C46.1139 123.495 45.9156 123.973 45.5189 124.37C45.1223 124.79 44.6323 125 44.0489 125ZM49.2989 125C48.7389 125 48.2489 124.79 47.8289 124.37C47.4323 123.973 47.2339 123.495 47.2339 122.935C47.2339 122.352 47.4323 121.85 47.8289 121.43C48.2489 121.033 48.7389 120.835 49.2989 120.835C49.8823 120.835 50.3723 121.033 50.7689 121.43C51.1656 121.85 51.3639 122.352 51.3639 122.935C51.3639 123.495 51.1656 123.973 50.7689 124.37C50.3723 124.79 49.8823 125 49.2989 125ZM52.7251 115.235H55.0351C55.7818 115.235 56.2601 114.92 56.4701 114.29C56.7034 113.637 56.8201 112.727 56.8201 111.56V100.08C56.8201 99.0767 56.6334 98.2483 56.2601 97.595C55.8868 96.9417 55.4668 96.4633 55.0001 96.16C55.1168 95.9033 55.3968 95.635 55.8401 95.355C56.3068 95.0517 56.8318 94.9 57.4151 94.9C58.2551 94.9 58.9551 95.2267 59.5151 95.88C60.0751 96.51 60.3551 97.5017 60.3551 98.855V111.525C60.3318 113.602 59.8418 115.2 58.8851 116.32C57.9518 117.44 56.7268 118 55.2101 118H52.7251V115.235ZM67.9572 118C67.2572 118 66.7905 117.802 66.5572 117.405C66.3472 117.008 66.2422 116.448 66.2422 115.725V100.08C66.2422 99.0533 66.0555 98.225 65.6822 97.595C65.3089 96.9417 64.8772 96.4633 64.3872 96.16C64.5039 95.9033 64.7839 95.635 65.2272 95.355C65.6939 95.0517 66.2305 94.9 66.8372 94.9C67.6772 94.9 68.3655 95.2267 68.9022 95.88C69.4622 96.51 69.7422 97.5017 69.7422 98.855V115.725C69.7422 116.448 69.6255 117.008 69.3922 117.405C69.1589 117.802 68.6805 118 67.9572 118ZM83.0047 126.015C82.0481 126.015 81.2431 125.852 80.5897 125.525C79.9364 125.222 79.4581 124.86 79.1547 124.44C78.8514 124.043 78.6881 123.705 78.6647 123.425C79.0614 123.588 79.5047 123.717 79.9947 123.81C80.4614 123.927 80.8931 123.985 81.2897 123.985C82.4564 123.985 83.3547 123.658 83.9847 123.005C84.6381 122.375 84.9647 121.663 84.9647 120.87L84.9297 102.845C84.9297 102.285 85.0931 101.877 85.4197 101.62C85.7464 101.34 86.1664 101.2 86.6797 101.2C87.1931 101.2 87.6131 101.34 87.9397 101.62C88.2664 101.9 88.4297 102.308 88.4297 102.845V120.345C88.4297 121.092 88.2781 121.897 87.9747 122.76C87.6714 123.623 87.1114 124.382 86.2947 125.035C85.5014 125.688 84.4047 126.015 83.0047 126.015ZM98.9702 118C97.4535 118 96.2169 117.44 95.2602 116.32C94.3269 115.2 93.8485 113.602 93.8252 111.525V100.08C93.8252 99.0533 93.6385 98.225 93.2652 97.595C92.8919 96.9417 92.4602 96.4633 91.9702 96.16C92.0869 95.9033 92.3669 95.635 92.8102 95.355C93.2769 95.0517 93.8135 94.9 94.4202 94.9C95.2602 94.9 95.9485 95.2267 96.4852 95.88C97.0452 96.51 97.3252 97.5017 97.3252 98.855V111.595C97.3252 112.575 97.5585 113.427 98.0252 114.15C98.4919 114.873 99.1569 115.235 100.02 115.235H101.28V118H98.9702ZM128.594 115.235V118H124.779C123.426 118 122.318 117.697 121.454 117.09C120.428 117.697 119.168 118 117.674 118H101.294V115.235H104.759V107.08C104.759 106.473 104.584 105.89 104.234 105.33C103.884 104.77 103.499 104.35 103.079 104.07C103.266 103.79 103.569 103.545 103.989 103.335C104.409 103.102 104.876 102.985 105.389 102.985C106.393 102.985 107.151 103.405 107.664 104.245C108.341 103.452 109.368 102.752 110.744 102.145C112.121 101.515 113.684 101.2 115.434 101.2C116.951 101.2 118.421 101.468 119.844 102.005C121.268 102.542 122.458 103.452 123.414 104.735C124.371 106.018 124.849 107.698 124.849 109.775C124.849 111.992 124.383 113.812 123.449 115.235H128.594ZM116.729 115.235C118.433 115.235 119.623 114.663 120.299 113.52C120.999 112.353 121.349 111.14 121.349 109.88C121.349 108.48 121.011 107.337 120.334 106.45C119.658 105.563 118.818 104.933 117.814 104.56C116.811 104.163 115.784 103.965 114.734 103.965C113.334 103.965 112.016 104.268 110.779 104.875C109.543 105.458 108.703 106.123 108.259 106.87V115.235H116.729ZM115.399 98.925C114.793 98.925 114.268 98.715 113.824 98.295C113.404 97.875 113.194 97.3733 113.194 96.79C113.194 96.1833 113.404 95.67 113.824 95.25C114.268 94.83 114.793 94.62 115.399 94.62C115.983 94.62 116.484 94.8417 116.904 95.285C117.324 95.705 117.534 96.2067 117.534 96.79C117.534 97.3733 117.324 97.875 116.904 98.295C116.484 98.715 115.983 98.925 115.399 98.925ZM128.604 115.235H136.864C137.797 115.235 138.649 115.13 139.419 114.92C140.189 114.71 140.854 114.208 141.414 113.415C141.997 112.622 142.289 111.443 142.289 109.88C142.289 107.85 141.694 106.357 140.504 105.4C139.337 104.443 137.447 103.965 134.834 103.965L132.419 104C130.902 104 130.039 103.207 129.829 101.62C129.806 101.503 129.794 101.34 129.794 101.13C129.794 100.71 129.841 100.453 129.934 100.36C130.587 101.013 131.532 101.34 132.769 101.34L134.064 101.27C134.951 101.223 135.662 101.2 136.199 101.2C139.279 101.2 141.647 101.947 143.304 103.44C144.961 104.933 145.789 107.045 145.789 109.775C145.789 112.132 145.194 114.092 144.004 115.655C142.814 117.218 141.017 118 138.614 118H128.604V115.235ZM138.124 98.925C137.517 98.925 136.992 98.715 136.549 98.295C136.129 97.875 135.919 97.3733 135.919 96.79C135.919 96.1833 136.129 95.67 136.549 95.25C136.992 94.83 137.517 94.62 138.124 94.62C138.707 94.62 139.209 94.8417 139.629 95.285C140.049 95.705 140.259 96.2067 140.259 96.79C140.259 97.3733 140.049 97.875 139.629 98.295C139.209 98.715 138.707 98.925 138.124 98.925ZM165.701 101.2C167.848 101.2 169.47 101.655 170.566 102.565C171.686 103.475 172.246 105.143 172.246 107.57V120.205C172.246 121.022 172.095 121.862 171.791 122.725C171.488 123.612 170.928 124.382 170.111 125.035C169.295 125.688 168.175 126.015 166.751 126.015C165.491 126.015 164.476 125.747 163.706 125.21C162.936 124.673 162.458 124.067 162.271 123.39C162.575 123.53 162.971 123.658 163.461 123.775C163.951 123.892 164.418 123.95 164.861 123.95C165.981 123.95 166.903 123.647 167.626 123.04C168.35 122.457 168.711 121.675 168.711 120.695L168.746 118L165.176 118.07C162.89 118.07 161.233 117.405 160.206 116.075C159.203 114.722 158.701 112.61 158.701 109.74C158.701 107.407 158.993 105.622 159.576 104.385C160.183 103.125 160.988 102.285 161.991 101.865C162.995 101.422 164.231 101.2 165.701 101.2ZM162.201 109.635C162.201 111.012 162.446 112.295 162.936 113.485C163.426 114.652 164.476 115.235 166.086 115.235H168.711V107.43C168.711 106.193 168.431 105.307 167.871 104.77C167.335 104.233 166.623 103.965 165.736 103.965C164.546 103.965 163.66 104.432 163.076 105.365C162.493 106.298 162.201 107.722 162.201 109.635ZM201.352 115.235V118H198.517C197.351 118 196.371 117.767 195.577 117.3C194.597 117.813 193.407 118.07 192.007 118.07C189.721 118.07 188.064 117.405 187.037 116.075C186.034 114.722 185.532 112.61 185.532 109.74C185.532 107.407 185.824 105.622 186.407 104.385C187.014 103.125 187.819 102.285 188.822 101.865C189.826 101.422 191.062 101.2 192.532 101.2C194.679 101.2 196.301 101.655 197.397 102.565C198.517 103.475 199.077 105.143 199.077 107.57V115.235H201.352ZM189.032 109.635C189.032 110.988 189.277 112.26 189.767 113.45C190.257 114.64 191.307 115.235 192.917 115.235H195.542V107.43C195.542 106.193 195.262 105.307 194.702 104.77C194.166 104.233 193.454 103.965 192.567 103.965C191.377 103.965 190.491 104.432 189.907 105.365C189.324 106.298 189.032 107.722 189.032 109.635ZM201.338 115.235H213.623C214.557 115.235 215.28 114.955 215.793 114.395C216.307 113.812 216.563 113.077 216.563 112.19C216.563 111.187 216.237 110.405 215.583 109.845C214.953 109.285 213.95 109.005 212.573 109.005H209.038C207.335 109.005 206.028 108.503 205.118 107.5C204.232 106.473 203.788 105.062 203.788 103.265C203.788 101.305 204.372 99.8117 205.538 98.785C206.705 97.735 208.572 97.21 211.138 97.21L214.288 97.28L216.318 97.35C217.555 97.35 218.5 97.0233 219.153 96.37C219.27 96.5333 219.328 96.79 219.328 97.14C219.328 97.8167 219.107 98.47 218.663 99.1C218.22 99.7067 217.578 100.01 216.738 100.01L211.663 99.975C210.1 99.975 208.98 100.232 208.303 100.745C207.627 101.258 207.288 102.04 207.288 103.09C207.288 104.07 207.545 104.84 208.058 105.4C208.595 105.937 209.365 106.205 210.368 106.205H213.098C217.742 106.205 220.063 108.223 220.063 112.26C220.063 114.033 219.62 115.433 218.733 116.46C217.87 117.487 216.622 118 214.988 118H201.338V115.235ZM227.645 118C226.945 118 226.478 117.802 226.245 117.405C226.035 117.008 225.93 116.448 225.93 115.725V100.08C225.93 99.0533 225.743 98.225 225.37 97.595C224.996 96.9417 224.565 96.4633 224.075 96.16C224.191 95.9033 224.471 95.635 224.915 95.355C225.381 95.0517 225.918 94.9 226.525 94.9C227.365 94.9 228.053 95.2267 228.59 95.88C229.15 96.51 229.43 97.5017 229.43 98.855V115.725C229.43 116.448 229.313 117.008 229.08 117.405C228.846 117.802 228.368 118 227.645 118ZM250.077 118H246.997V120.205C246.997 121.022 246.846 121.862 246.542 122.725C246.239 123.612 245.679 124.382 244.862 125.035C244.046 125.688 242.926 126.015 241.502 126.015C240.242 126.015 239.227 125.747 238.457 125.21C237.687 124.673 237.209 124.067 237.022 123.39C237.326 123.53 237.722 123.658 238.212 123.775C238.702 123.892 239.169 123.95 239.612 123.95C240.732 123.95 241.654 123.647 242.377 123.04C243.101 122.457 243.462 121.675 243.462 120.695L243.497 118L239.927 118.07C237.641 118.07 235.984 117.405 234.957 116.075C233.954 114.722 233.452 112.61 233.452 109.74C233.452 107.407 233.744 105.622 234.327 104.385C234.934 103.125 235.739 102.285 236.742 101.865C237.746 101.422 238.982 101.2 240.452 101.2C242.599 101.2 244.221 101.655 245.317 102.565C246.437 103.475 246.997 105.143 246.997 107.57V115.235H250.077V118ZM236.952 109.635C236.952 111.012 237.197 112.295 237.687 113.485C238.177 114.652 239.227 115.235 240.837 115.235H243.462V107.43C243.462 106.193 243.182 105.307 242.622 104.77C242.086 104.233 241.374 103.965 240.487 103.965C239.297 103.965 238.411 104.432 237.827 105.365C237.244 106.298 236.952 107.722 236.952 109.635ZM259.774 101.2C261.36 101.2 262.632 101.387 263.589 101.76C264.545 102.133 265.269 102.857 265.759 103.93C266.272 105.003 266.529 106.543 266.529 108.55V113.1C266.529 114.57 266.155 115.76 265.409 116.67C264.685 117.557 263.542 118 261.979 118H250.079V115.235H254.384C253.404 113.672 252.914 111.677 252.914 109.25C252.914 106.963 253.205 105.237 253.789 104.07C254.395 102.903 255.177 102.133 256.134 101.76C257.114 101.387 258.327 101.2 259.774 101.2ZM263.029 107.36C263.029 105.073 262.06 103.93 260.124 103.93C258.934 103.93 258.012 104.385 257.359 105.295C256.729 106.182 256.414 107.5 256.414 109.25C256.414 110.627 256.647 111.968 257.114 113.275C257.58 114.582 258.479 115.235 259.809 115.235H260.474C261.43 115.235 262.095 115.002 262.469 114.535C262.842 114.045 263.029 113.217 263.029 112.05V107.36ZM260.369 98.925C259.762 98.925 259.237 98.715 258.794 98.295C258.374 97.875 258.164 97.3733 258.164 96.79C258.164 96.1833 258.374 95.67 258.794 95.25C259.237 94.83 259.762 94.62 260.369 94.62C260.952 94.62 261.454 94.8417 261.874 95.285C262.294 95.705 262.504 96.2067 262.504 96.79C262.504 97.3733 262.294 97.875 261.874 98.295C261.454 98.715 260.952 98.925 260.369 98.925Z" fill="url(#paint0_linear)"/>
<defs>
<linearGradient id="paint0_linear" x1="2.00421e-06" y1="109.5" x2="274.801" y2="109.5" gradientUnits="userSpaceOnUse">
<stop stop-color="#ADCB74"/>
<stop offset="1" stop-color="#1FB55B"/>
</linearGradient>
<clipPath id="clip0">
<rect width="86.1248" height="86.2544" fill="white" transform="translate(104.209)"/>
</clipPath>
<clipPath id="clip1">
<rect width="86.1248" height="86.2544" fill="white" transform="translate(69.3179 1.12311)"/>
</clipPath>
</defs>
</svg>
