<svg width="37" height="37" viewBox="0 0 37 37" fill="none" xmlns="http://www.w3.org/2000/svg">
<path d="M37 27.571C37 29.6 35.3887 31.2113 33.4194 31.2113H3.58065C1.61129 31.2113 0 29.6 0 27.571V9.42908C0 7.40005 1.61129 5.78876 3.58065 5.78876H33.4194C35.3887 5.78876 37 7.40005 37 9.42908V27.571Z" fill="#009966"/>
<path d="M3.58057 5.78876H33.4193C35.3886 5.78876 36.9999 7.40005 36.9999 9.42908V27.571C36.9999 29.6 35.3886 31.2113 33.4193 31.2113" fill="#038E5C"/>
<path d="M37 27.571C37 29.6001 35.3887 31.2114 33.4194 31.2114H3.58065C1.61129 31.2114 0 29.6001 0 27.571" fill="#007A54"/>
<path d="M3.58057 5.78876H33.4193C35.3886 5.78876 36.9999 7.40005 36.9999 9.42908V16.0533" fill="#007A54"/>
<path d="M4.5351 11.5775C4.77381 11.3984 4.77381 11.8759 4.5351 12.4129C4.65445 12.2339 4.89316 11.8162 4.83349 11.5178C4.77381 11.1 4.5351 11.1597 4.35606 11.3984C4.23671 11.5775 4.29639 11.6968 4.5351 11.5775Z" fill="white"/>
<path d="M4.59505 14.9791C4.89344 14.442 4.77408 14.0242 5.01279 13.2484C5.19183 12.771 5.19183 13.1291 5.19183 13.4274C5.07247 14.2033 5.13215 15.4565 6.20634 15.3968C6.26602 16.1129 6.44505 17.3662 6.44505 17.8436C6.44505 18.2613 6.50473 18.142 6.62409 17.9033C6.74344 17.6645 6.68376 17.3662 6.68376 17.0081C6.68376 16.65 6.62409 15.9936 6.56441 15.0984C6.68376 14.9791 6.8628 14.8 6.92247 14.6807C7.04183 14.3823 7.1015 14.442 7.16118 14.6807C7.28054 15.1581 7.75796 15.4565 8.35473 14.9791C8.9515 14.5613 8.71279 13.7258 8.41441 12.8307C8.65312 12.8903 8.71279 12.7113 8.59344 12.4726C8.53376 12.3532 8.41441 12.2339 8.35473 12.1145C8.23538 11.9952 8.1757 11.8758 8.05634 11.9952C7.93699 12.1145 7.87731 12.2339 7.81763 12.2936C7.75796 12.3532 7.75796 12.4726 7.81763 12.6516C8.05634 13.1887 8.1757 13.7855 8.23538 14.0839C8.29505 14.3823 8.1757 14.442 7.93699 14.442C7.75796 14.442 7.45957 14.3823 7.34021 13.9049C7.22086 13.4274 7.16118 13.2484 7.22086 12.8903C7.22086 12.592 7.28054 12.3532 7.04183 12.0549C6.80312 11.7565 6.80312 11.8162 6.74344 11.9355C6.68376 12.1145 6.62409 12.3532 6.68376 12.6516C6.80312 13.0694 6.8628 13.4274 6.92247 13.6662C6.98215 13.8452 6.80312 14.2033 6.50473 14.3823C6.44505 13.7855 6.38538 13.0694 6.3257 12.4129C6.68376 12.2936 6.50473 11.8758 6.20634 11.3984C6.02731 11.0403 5.90796 11.1597 5.7886 11.3984C5.66925 11.6371 5.72892 11.7565 5.84828 11.9355C5.7886 12.1145 5.90796 12.3532 5.96763 12.771C6.02731 13.0694 6.08699 13.8452 6.08699 14.5016C5.84828 14.5016 5.66925 14.3226 5.54989 14.0839C5.37086 13.6065 5.37086 13.1291 5.49021 12.8903C5.60957 12.592 5.66925 12.1742 5.49021 12.0549C5.31118 11.9355 5.13215 12.0549 5.01279 12.2936C4.77408 12.6516 4.53538 13.1291 4.53538 13.6662C4.53538 13.8452 4.4757 14.2629 4.35634 14.442C4.29667 14.621 4.11763 14.621 3.99828 14.3823C3.75957 14.0242 3.69989 13.0694 3.69989 12.592C3.69989 12.3532 3.64021 12.2936 3.58054 12.592C3.34183 13.5468 3.64021 14.5016 3.81925 14.9194C4.11763 15.4565 4.41602 15.3371 4.59505 14.9791Z" fill="white"/>
<path d="M7.45928 11.8758C7.57863 11.7565 7.57863 11.7565 7.63831 11.8758C7.69799 11.9952 7.87702 11.9952 7.9367 11.8758C7.99637 11.7565 8.05605 11.6968 7.99637 11.5178C7.9367 11.3984 7.9367 11.4581 7.87702 11.5775C7.81734 11.8162 7.57863 11.7565 7.57863 11.4581C7.57863 11.1597 7.51895 11.3387 7.3996 11.5178C7.28024 11.8162 7.10121 11.7565 7.10121 11.4581C7.10121 11.2791 7.04154 11.1 6.92218 11.3387C6.8625 11.5178 6.92218 11.6968 6.98186 11.8162C7.16089 11.9952 7.33992 11.9952 7.45928 11.8758Z" fill="white"/>
<path d="M5.66954 16.3516C5.84857 16.2919 5.84857 16.2919 5.84857 16.0532C5.84857 15.8145 5.72922 15.9339 5.49051 15.9935C5.13244 16.1129 4.41631 16.471 3.87921 17.1274C3.6405 17.4258 3.81954 17.3064 3.99857 17.1871C4.29696 16.9484 5.19212 16.471 5.66954 16.3516Z" fill="white"/>
<path d="M4.4759 20.171C4.29687 20.4694 3.9388 20.0517 4.17751 19.2759C4.23719 19.0968 4.29687 18.9775 4.29687 18.8581C4.29687 18.7388 4.29687 18.6194 4.29687 18.4404C4.29687 18.321 4.17751 18.5001 4.11784 18.7388C4.05816 19.0968 3.81945 19.2759 3.87913 20.4097C3.9388 21.0662 4.71461 21.0662 4.77429 20.2307C4.77429 19.8727 4.65493 19.8727 4.4759 20.171Z" fill="white"/>
<path d="M9.78703 17.6645C9.78703 17.3661 9.72736 17.0677 9.72736 16.7693C9.78703 16.7693 9.78703 16.7097 9.84671 16.7097C10.0257 17.2468 10.8016 17.1274 11.0403 16.7693C11.1596 16.5903 11.1596 16.5903 11.279 16.7693C11.458 17.0081 12.0548 17.1274 12.1741 16.7693C12.2935 16.4113 12.2935 16.0532 12.2338 15.8145C12.1741 15.5161 12.1145 15.5758 11.9354 15.6952C11.7564 15.8145 11.8757 15.8742 11.9354 16.0532C11.9951 16.7693 11.3983 16.7097 11.3386 15.9935C11.279 15.5161 11.2193 15.6952 11.1596 15.9339C10.8612 16.829 10.0854 17.0081 10.2048 15.9339C10.2048 15.6355 10.0257 15.7548 9.90639 15.8742C9.84671 15.9339 9.72736 16.0532 9.66768 16.1129C9.608 15.2774 9.54832 14.3226 9.42897 13.129C9.66768 13.4274 9.90639 13.0693 9.72736 12.771C9.608 12.5323 9.42897 11.9355 9.30961 11.6371C9.19026 11.3387 9.13058 11.3984 8.89187 11.6968C8.65316 11.9355 8.71284 11.9952 8.77252 12.2935C8.77252 12.6516 8.77252 12.95 8.89187 13.6064C8.95155 14.0839 9.0709 15.0984 9.19026 16.3516C9.0709 16.4113 8.89187 16.5306 8.77252 16.5903C8.71284 16.3516 8.53381 16.2322 8.2951 15.9935C7.93703 15.6355 7.69832 15.6355 7.39994 16.0532C7.10155 16.471 7.16123 16.5306 7.16123 16.9484C7.16123 17.3064 7.10155 17.4258 7.39994 17.5451C7.69832 17.6645 7.81768 17.6048 7.99671 17.5451C8.11607 17.4855 8.2951 17.4258 8.53381 17.3661C8.59349 17.5451 8.53381 17.7839 8.41445 17.9032C7.69832 18.7387 6.62413 19.3951 6.14671 18.7984C5.908 18.5 5.78865 18.0226 5.84832 17.4258C5.908 16.9484 5.78865 17.1871 5.72897 17.3064C5.54994 17.8435 5.49026 18.679 5.72897 19.0968C6.02736 19.6935 6.56445 19.9322 7.39994 19.5145C8.23542 19.1564 9.01123 18.5 9.01123 17.6048C9.01123 17.4258 9.01123 17.3064 9.01123 17.1871C9.13058 17.1274 9.24994 17.0677 9.30961 17.0081C9.30961 17.3064 9.30961 17.7242 9.30961 18.0226C9.36929 18.9774 8.95155 19.2758 8.59349 19.5742C8.11607 19.9322 7.45961 20.2306 6.86284 20.2903C5.54994 20.4693 5.25155 19.6339 5.25155 18.5C5.25155 18.321 5.31123 18.2016 5.31123 17.9629C5.31123 17.4855 5.25155 17.5451 5.07252 18.0226C4.95316 18.5 4.77413 19.5742 5.19187 20.4693C5.66929 21.3645 7.22091 21.1258 8.41445 20.529C9.72736 19.8726 9.84671 18.7984 9.78703 17.6645ZM8.11607 16.7693C7.81768 16.8887 7.69832 16.7097 7.758 16.5306C7.758 16.3516 7.81768 16.2322 8.05639 16.3516C8.17574 16.4113 8.2951 16.5306 8.41445 16.7097C8.23542 16.7693 8.17574 16.7693 8.11607 16.7693Z" fill="white"/>
<path d="M11.1594 18.679C11.2788 18.4403 11.3384 18.2016 11.2788 17.9032C11.2191 17.7242 11.2788 17.6645 11.0997 17.5452C10.9207 17.4855 10.861 17.6048 10.8013 17.7242C10.7417 17.9032 10.861 18.1419 11.0997 18.0226C11.1594 18.1419 11.0997 18.4403 11.04 18.6194C10.9804 18.8581 11.04 18.9177 11.1594 18.679Z" fill="white"/>
<path d="M11.6367 13.8452C11.398 14.1436 11.2189 14.5613 11.577 14.8C11.756 14.9194 12.1141 14.7403 12.2334 14.5016C12.3528 14.2032 12.2931 14.1436 12.0544 14.4419C11.756 14.8 11.398 14.5016 11.756 13.9645C11.9947 13.6065 11.8157 13.5468 11.6367 13.8452Z" fill="white"/>
<path d="M10.6226 13.9049C11.458 13.5468 11.9355 13.0694 12.1742 12.6516C12.4129 12.7113 12.4726 12.5323 12.3532 12.3533C12.4129 12.1742 12.4726 12.0549 12.5322 11.9355C12.7113 11.1597 11.9355 11.1 11.7564 11.6968C11.6371 11.9952 11.6371 12.2936 11.8758 12.4726C11.5177 12.95 11.0403 13.3678 10.4435 13.7258C10.2048 13.9645 10.2645 14.0839 10.6226 13.9049ZM12.0548 11.8162C12.1145 11.6371 12.2338 11.7565 12.2338 11.8758C12.2338 11.9355 12.1742 12.0549 12.1145 12.1145C11.9951 12.0549 11.9951 11.9355 12.0548 11.8162Z" fill="white"/>
<path d="M11.7566 11.6968C11.6373 11.9952 11.6373 12.2936 11.876 12.4726C11.8163 12.5323 11.7566 12.6517 11.6969 12.7113L11.9953 12.95C12.055 12.8307 12.1744 12.771 12.234 12.6517C12.4728 12.7113 12.5324 12.5323 12.4131 12.3533C12.4728 12.1742 12.5324 12.0549 12.5921 11.9355C12.7115 11.1597 11.9953 11.1 11.7566 11.6968ZM12.234 11.8758C12.234 11.9355 12.1744 12.0549 12.1147 12.1146C11.9953 12.0549 11.9953 11.9355 12.055 11.8162C12.1147 11.6371 12.234 11.7565 12.234 11.8758Z" fill="#CFE7E8"/>
<path d="M12.6516 18.679C12.5322 18.7387 12.3532 18.9177 12.2338 19.0371C12.2338 18.7984 12.2935 18.4403 12.2935 18.321C12.2935 18.1419 12.2338 18.0822 12.1145 18.2613C11.9354 18.6193 11.7564 19.0968 11.6967 19.4548C10.9209 19.9919 9.96608 20.529 9.30963 20.8274C9.01124 20.9468 9.19027 21.0661 9.42898 21.0064C10.3241 20.708 11.0403 20.4693 11.6967 20.1709C11.7564 20.708 11.9354 21.0661 12.4129 21.1855C13.308 21.4242 14.2032 20.6484 15.2177 19.2758C15.4564 19.9322 16.0532 20.8274 17.6048 21.0661C18.2612 21.1855 18.2016 21.1258 18.3209 20.7677C18.3806 20.4693 18.4999 20.4097 17.9629 20.2903C17.3064 20.0516 17.0677 19.5742 17.7241 19.2758C18.3806 18.9774 19.2758 18.7387 19.8725 18.6193C20.2903 18.5597 20.4096 18.5597 20.529 18.2016C20.6483 17.7839 20.708 17.7242 20.2903 17.7839C19.8129 17.8435 17.5451 17.9032 16.9483 17.8435C17.4258 17.6048 18.0822 17.3661 18.5596 17.1871C18.7387 17.3064 18.7983 17.2468 18.7387 17.1274C18.9177 17.0677 19.0967 17.0081 19.2758 16.8887C19.8129 16.5903 20.0516 15.9339 19.4548 15.5161C18.858 15.0984 18.3806 14.979 18.0822 15.3968C17.8435 15.7548 17.6048 16.1129 17.9629 16.5903C17.4258 16.7693 16.9483 16.9484 16.4709 17.1274C16.1129 17.2468 15.9338 17.3064 15.8145 17.7839C15.6951 18.2613 15.6354 18.2613 16.1129 18.321C16.7693 18.321 17.3661 18.321 17.7838 18.679C17.1274 18.9177 16.6499 19.3951 16.8887 20.0516C16.5903 19.9919 16.2919 19.8726 16.0532 19.6339C15.5758 19.1564 15.5758 18.321 15.3967 17.3661C15.2177 16.4113 14.7999 15.5758 14.6209 15.2177C14.5016 14.8597 14.4419 15.0387 14.3225 15.2774C14.2032 15.5161 14.0838 15.6355 14.2032 15.9935C14.4419 16.5903 14.7999 17.7839 14.979 18.5C14.6209 19.3355 13.6661 20.35 12.8903 20.4693C12.2935 20.5887 12.1145 20.2306 12.1741 19.9322C12.5919 19.6935 12.9499 19.3951 13.308 19.0371C14.0241 18.2613 14.1435 17.6645 13.6661 16.4113C13.9645 16.471 13.9048 16.2322 13.487 15.6952C13.1887 15.3371 13.129 15.3968 12.9499 15.7548C12.8306 16.0532 12.7112 16.2919 13.0693 16.4113C13.129 16.5903 13.2483 16.829 13.4274 17.1274C13.7854 17.9032 13.1887 18.2016 12.6516 18.679ZM18.3209 16.0532C18.3209 15.8742 18.3806 15.8742 18.679 16.0532C18.9774 16.2322 19.2161 16.2919 18.7983 16.3516C18.679 16.4113 18.4999 16.4113 18.3806 16.471C18.3806 16.2919 18.3806 16.1726 18.3209 16.0532Z" fill="white"/>
<path d="M20.2311 17.7839C19.9327 17.7839 18.6198 17.8436 17.7246 17.8436L18.9182 18.8581C19.2165 18.7388 19.5746 18.6791 19.8133 18.6194C20.2311 18.5597 20.3504 18.5597 20.4698 18.2017C20.5891 17.7839 20.6488 17.7243 20.2311 17.7839Z" fill="#CFE7E8"/>
<path d="M14.3823 14.9791L14.5017 15.0984C14.5017 14.9791 14.442 14.9791 14.3823 14.9791Z" fill="#CFE7E8"/>
<path d="M17.426 17.5451C17.7841 17.3661 18.2018 17.2468 18.5002 17.1274C18.6792 17.2468 18.7389 17.1871 18.6792 17.0677C18.8582 17.0081 19.0373 16.9484 19.2163 16.829C19.7534 16.5306 19.9921 15.8742 19.3953 15.4564C18.7986 15.0387 18.3211 14.9193 18.0228 15.3371C17.7841 15.6952 17.5453 16.0532 17.9034 16.5306C17.4857 16.65 17.1276 16.7693 16.7695 16.9484L17.426 17.5451ZM18.7389 16.0532C19.0373 16.2322 19.276 16.2919 18.8582 16.3516C18.7389 16.4113 18.5599 16.4113 18.4405 16.471C18.3808 16.2919 18.3808 16.1726 18.3808 16.1129C18.3211 15.8742 18.4405 15.8742 18.7389 16.0532Z" fill="#CFE7E8"/>
<path d="M19.6932 20.8871C19.8722 20.8274 20.1706 20.6484 20.4093 20.4693C20.648 20.2306 20.469 20.2903 20.2899 20.35C20.1109 20.4096 19.9319 20.529 19.6932 20.5887C19.4544 20.708 19.3948 20.5887 19.5141 20.1709C19.6335 19.8129 19.5141 19.8129 19.3351 19.8725C19.1561 19.9322 19.0964 20.0516 18.9173 20.1709C18.798 20.2306 18.798 20.35 19.0964 20.2306C19.3351 20.1113 19.2754 20.2306 19.2157 20.529C19.0964 20.8274 19.2754 21.0064 19.6932 20.8871Z" fill="white"/>
<path d="M14.1436 14.3822C14.3226 13.9645 14.442 13.5467 14.5613 13.2484C14.6807 12.95 14.8 13.0097 14.7403 13.308C14.6807 13.8451 14.6807 14.6806 15.2178 15.0387C15.7549 15.3371 16.5903 14.8 16.8887 14.2032C17.7839 15.3371 18.5597 14.8 18.6194 13.7258C18.6194 13.3677 18.5 12.6516 18.3807 12.4129C18.2613 12.1742 18.3807 12.1742 18.5 12.2935C18.6194 12.4129 18.8581 12.5322 18.7387 12.1145C18.6194 11.7564 18.4403 11.5177 18.2613 11.3387C18.0823 11.1597 18.0226 11.279 17.9629 11.3984C17.9033 11.5177 17.9033 11.5774 17.7839 11.6967C17.6645 11.8161 17.7242 11.8758 17.7839 12.0548C18.142 12.8903 18.4403 14.1435 17.9033 14.2629C17.4258 14.3822 17.1274 13.308 17.1274 12.8306C17.1274 12.2338 17.0081 11.6967 16.8887 11.3387C16.7694 10.9806 16.7097 10.9806 16.5903 11.1597C16.5307 11.279 16.5307 11.3984 16.4113 11.5177C16.3516 11.6371 16.4113 11.6967 16.471 11.9355C16.7694 13.308 16.7097 13.9048 16.1129 14.2629C15.5162 14.6209 15.1581 14.2629 15.1581 13.8451C15.1581 13.4274 15.1581 12.8903 15.2178 12.5322C15.2774 12.1742 15.3371 12.0548 15.2178 11.8758C15.0984 11.6967 14.9791 11.7564 14.8 11.9951C14.442 12.5322 14.0242 13.4274 13.9049 13.8451C13.7855 14.2629 13.4871 14.1435 13.3081 13.7855C13.0694 13.3677 13.1291 12.5919 13.1887 12.2338C13.2484 11.9355 13.2484 11.8161 13.0694 12.1145C12.771 12.95 12.771 13.7855 13.4274 14.5016C13.7258 15.0387 13.9645 14.8 14.1436 14.3822Z" fill="#CFE7E8"/>
<path d="M15.8145 12.7709C15.8145 12.95 15.8145 13.1887 15.9339 12.8306C15.9936 12.4725 15.9936 11.9951 15.8742 11.6967C15.7549 11.3983 15.6952 11.3387 15.5758 11.458C15.4565 11.5774 15.4565 11.6371 15.5758 11.7564C15.6952 11.9354 15.8742 12.3532 15.8145 12.7709Z" fill="#CFE7E8"/>
<path d="M17.068 15.5758C17.068 16.0532 16.9486 16.0532 16.7696 15.5758C16.7099 15.3968 16.6502 15.3968 16.5906 15.6355C16.5906 16.0532 16.4115 16.1129 16.2922 15.6951C16.2325 15.5161 16.2325 15.3371 16.1728 15.6355C16.1131 15.8742 16.1728 16.0532 16.2922 16.2322C16.4115 16.3516 16.5906 16.3516 16.6502 16.1726C16.7099 15.9935 16.7696 15.9935 16.8889 16.1129C17.0083 16.2322 17.4857 16.1129 17.247 15.4564C17.1277 15.2177 17.068 15.2774 17.068 15.5758Z" fill="#CFE7E8"/>
<path d="M21.9021 11.8161C22.0811 11.9354 22.2601 12.2338 22.2004 12.5919C22.1408 12.8903 22.2004 13.0693 22.3795 12.6516C22.5585 12.2338 22.4391 11.7564 22.2601 11.458C22.0811 11.1596 22.0214 11.279 21.9021 11.3983C21.7827 11.5774 21.723 11.7564 21.9021 11.8161Z" fill="#CFE7E8"/>
<path d="M18.8581 11.9951C18.8581 12.1742 18.9178 12.2935 19.1565 12.3532C19.6339 13.0096 20.171 13.7258 20.6485 14.3822C20.7081 14.979 20.8275 15.5758 20.8872 16.1129C21.0065 17.3064 21.2452 18.9177 21.0662 19.6338C20.9468 20.1709 21.0662 20.35 21.3049 19.5741C21.5436 18.7983 21.5436 18.0225 21.3646 16.8887C21.3049 16.4112 21.3049 15.8742 21.2452 15.2774C22.021 16.5306 22.7969 17.7242 23.0952 18.5596C23.2743 19.0371 23.4533 19.0967 23.2743 18.5C23.0952 17.6645 22.3194 16.2322 21.1259 14.4419C21.0662 13.9645 21.0662 13.4871 21.0662 13.129C21.2452 13.308 21.3646 13.1887 21.3049 12.95C21.1856 12.4725 21.0065 12.1145 20.8275 11.6371C20.7678 11.3983 20.5291 11.3983 20.4097 11.6967C20.2904 12.0548 20.2904 12.1145 20.4097 12.3532C20.4097 12.6516 20.4694 13.0693 20.5291 13.4871C20.3501 13.1887 20.0517 12.7709 19.813 12.4725C20.1114 12.5919 20.3501 12.5322 20.0517 12.1742C19.7533 11.8758 19.3355 11.5177 19.0968 11.279C18.8581 11.0403 18.7388 11.2193 18.7388 11.3983C18.8581 11.6967 18.9178 11.8161 18.8581 11.9951Z" fill="#CFE7E8"/>
<path d="M22.2594 13.6661C22.1998 13.9645 22.0804 13.8451 22.0207 13.6064C21.961 13.4871 21.9014 13.5467 21.9014 13.7854C21.961 14.0241 22.0207 14.2032 22.1998 14.0241C22.3191 13.9048 22.3191 13.9048 22.4981 14.0241C22.6175 14.1435 22.7368 14.0241 22.7965 13.9645C22.7965 13.9048 22.8562 13.7854 22.7965 13.4871C22.7368 13.1887 22.6772 13.3677 22.6175 13.6064C22.5578 13.8451 22.4385 13.9048 22.3788 13.6064C22.3788 13.3677 22.2594 13.4274 22.2594 13.6661Z" fill="#CFE7E8"/>
<path d="M23.6323 17.5452C23.692 18.6194 23.8113 19.0968 23.1549 19.8726C22.4388 20.6484 21.9613 20.8871 21.6629 20.9468C21.2452 21.0661 21.1258 21.2452 21.7226 21.1855C22.6178 21.1258 22.7371 21.1258 23.513 20.2307C23.9307 19.7532 24.1097 19.1565 24.1097 17.7242C24.0501 15.2178 23.7517 14.1436 23.7517 12.771C23.871 12.8903 24.05 12.8903 23.9904 12.6516C23.871 12.3532 23.8113 11.9952 23.7517 11.6968C23.6323 11.3984 23.5726 11.279 23.4533 11.4581C23.3339 11.6371 23.2146 11.6968 23.1549 11.8161C23.0952 11.9355 23.0355 12.1145 23.1549 12.2936C23.513 15.2178 23.5726 16.471 23.6323 17.5452Z" fill="#CFE7E8"/>
<path d="M25.1838 17.8436C25.2435 18.4404 25.3629 18.8581 25.1838 19.5742C25.1242 19.7533 25.2435 19.8726 25.3629 19.5742C25.8999 18.5597 25.5419 17.6645 25.4822 17.0678C25.4225 16.1726 25.0645 13.8452 25.0048 12.8903L25.0645 12.95C25.3032 13.0694 25.6016 13.1887 25.4225 12.8307C25.2435 12.5323 25.0645 11.9952 24.9451 11.6371C24.8258 11.279 24.7661 11.279 24.5871 11.5774C24.229 12.0549 24.4677 12.5323 24.5871 13.1291C24.8258 15.1581 25.1242 17.2468 25.1838 17.8436Z" fill="#CFE7E8"/>
<path d="M26.4371 14.5016C26.6161 14.6806 26.7354 15.0387 26.8548 15.2177C26.9741 15.5161 27.0935 15.2774 27.0935 15.0984C27.0935 14.9193 27.0338 14.3822 27.0935 14.2032C27.2129 13.9048 27.3919 14.3225 27.4516 14.1435C27.5112 14.0242 27.3919 13.9645 27.3322 13.8451C27.2725 13.6661 27.2129 13.7258 27.0935 13.7854C26.9741 13.9048 26.9145 14.0242 26.9145 14.0838C26.9145 14.2629 26.9145 14.4419 26.9145 14.7403C26.9145 14.979 26.8548 14.979 26.7951 14.8596C26.7354 14.6806 26.5564 14.2629 26.4371 14.1435C26.3177 14.0242 26.1387 14.0838 26.1387 14.2629C26.1387 14.4419 26.1387 14.3822 26.1387 14.5613C26.1387 14.6806 26.3774 14.6806 26.4371 14.5016Z" fill="#CFE7E8"/>
<path d="M26.3179 16.829C26.3179 17.008 26.5566 16.7693 26.7356 16.65C26.9146 16.5306 27.4517 16.1725 27.6905 16.0532C27.9292 15.9338 27.8695 15.8741 27.8098 15.6354C27.8098 15.3967 27.6308 15.5758 27.4517 15.7548C27.2727 15.9338 26.7356 16.2919 26.5566 16.4709C26.3775 16.65 26.3179 16.7096 26.3179 16.829Z" fill="#CFE7E8"/>
<path d="M25.0646 20.0516C24.8259 19.5742 24.8259 19.0968 24.8259 18.679C24.8259 18.321 24.7662 18.0226 24.6469 18.6193C24.2888 20.0516 24.5275 20.35 24.8856 20.6484C25.363 21.0661 25.542 21.1258 25.7807 20.7081C26.2581 19.9919 26.4372 19.3951 26.6759 19.0371C26.9146 18.7387 26.9146 18.9774 27.0339 19.0968C27.3323 19.4548 27.571 19.5742 27.9888 19.6339C28.4065 19.6935 29.1227 19.3355 29.063 18.0226C29.0033 17.1871 28.9436 16.1129 28.8839 14.9193C29.3017 15.4564 29.6001 15.9339 29.8985 16.3516C30.0178 17.1274 30.0775 17.8435 30.0775 18.3806C30.0178 19.0371 30.1968 19.0371 30.3162 18.3806C30.3759 18.1419 30.3759 17.5451 30.3162 16.8887C30.8533 17.6048 31.1517 18.0226 31.3307 18.3806C31.5694 18.7984 31.6888 19.0968 31.6291 18.321C31.6291 18.0226 31.5097 17.7839 31.1517 17.2468C30.7936 16.7693 30.4952 16.2919 30.1968 15.8145C30.0775 14.6806 29.9581 13.4274 29.9581 12.771C30.1372 12.8903 30.2565 12.771 30.1372 12.5322C30.0775 12.2935 29.8985 11.5774 29.7791 11.3387C29.6598 11.1 29.5404 11.1 29.421 11.3984C29.3017 11.6371 29.1823 11.7564 29.242 11.9355C29.3017 13.0693 29.421 14.1435 29.6001 15.0984C29.3017 14.6806 29.0033 14.2629 28.7646 13.9048C28.7646 13.4871 28.7049 13.0693 28.7049 12.6516C28.8839 12.771 28.9436 12.771 28.8839 12.4726C28.8243 12.2339 28.5856 11.6371 28.4662 11.3984C28.3468 11.1597 28.2872 11.1597 28.1678 11.3387C27.9888 11.6371 27.9291 11.8758 28.1081 12.1742C28.1081 12.4726 28.1678 12.7113 28.1678 13.0097C27.9888 12.771 27.8694 12.5322 27.6904 12.3532C27.8694 12.4129 27.9888 12.2935 27.8098 12.1145C27.6307 11.9355 27.2727 11.6371 27.0936 11.4581C26.9146 11.2193 26.7952 11.279 26.7952 11.4581C26.7952 11.6371 26.7952 11.8161 26.7952 11.9952C26.7952 12.1742 26.7952 12.2935 26.9743 12.5919C27.392 13.129 27.8694 13.6661 28.2275 14.2032C28.4065 16.1129 28.4662 17.3661 28.4662 18.1419C28.4662 18.6193 28.2872 18.8581 28.0485 18.9177C27.8098 18.9774 27.571 18.8581 27.3323 18.5C26.9146 17.9032 26.7356 18.0226 26.4372 18.5597C26.1388 19.0968 25.9001 19.5145 25.721 19.8726C25.6017 20.2306 25.3033 20.529 25.0646 20.0516Z" fill="#CFE7E8"/>
<path d="M30.7936 13.4274C30.7936 13.7855 30.913 13.7258 30.9726 13.4274C31.0323 13.129 31.0323 12.5322 30.8533 12.1742C30.6742 11.7564 30.6145 11.9355 30.5549 12.0548C30.4355 12.2338 30.4355 12.2935 30.6145 12.4726C30.6742 12.6516 30.7936 13.0693 30.7936 13.4274Z" fill="#CFE7E8"/>
<path d="M32.4051 17.1274C32.2858 14.6209 31.9874 13.5467 32.0471 12.5919C32.2858 12.7709 32.3454 12.7112 32.2261 12.4128C32.1067 12.1144 31.9277 11.7564 31.8084 11.3983C31.689 11.0999 31.6293 11.1596 31.4503 11.3983C31.2713 11.637 31.2713 11.8161 31.3309 11.9354C31.689 14.979 31.868 16.5903 31.9277 17.5451C31.9874 18.858 31.689 19.6338 30.3761 20.529C29.9584 20.8274 29.4809 21.1257 30.4954 20.887C31.4503 20.5886 32.5245 19.9322 32.4051 17.1274Z" fill="#CFE7E8"/>
<path d="M29.0628 19.7532C28.8838 19.9919 29.3015 20.1113 29.3612 19.9322C29.4806 20.1113 29.3612 20.4097 29.1822 20.5887C28.8838 20.8274 29.0628 20.8871 29.2419 20.708C29.4209 20.5887 29.8983 20.0516 29.5999 19.6935C29.4209 19.5742 29.1822 19.5742 29.0628 19.7532Z" fill="#CFE7E8"/>
<path d="M27.7502 24.1694C26.9744 24.1694 26.2583 24.1694 25.4825 24.229V23.9903C25.7212 23.6919 25.6615 23.6919 25.4825 23.3936C25.4228 23.2742 25.3631 23.1548 25.1841 23.3936C25.0051 23.6323 25.0051 23.6919 25.2438 23.9903V24.229C19.3357 24.2887 12.8309 24.229 7.22119 24.1694C7.81797 25.1839 9.847 25.1242 11.697 25.1242C13.368 25.1242 18.3809 25.1242 25.1841 24.9452V25.2436C24.9454 25.5419 25.0051 25.5419 25.1841 25.8403C25.3631 26.079 25.4228 25.9597 25.4825 25.8403C25.5422 25.7807 25.5422 25.721 25.5422 25.721H26.4373C26.4373 25.8403 26.6164 25.9 26.676 25.9C26.7357 25.9 26.9147 25.8403 26.9147 25.721H27.9293C28.0486 25.9 28.168 25.9597 28.347 25.9597C28.7051 25.9597 28.8841 25.5419 28.8244 25.0049C28.7647 24.229 28.4664 24.1097 27.7502 24.1694ZM26.9147 25.3629C26.9147 25.2436 26.7357 25.1839 26.676 25.1839C26.6164 25.1839 26.4373 25.2436 26.4373 25.3629H25.5422C25.5422 25.3032 25.4825 25.2436 25.3631 25.1242V24.8258C26.1389 24.8258 26.9744 24.7661 27.8099 24.7661C27.7502 24.9452 27.7502 25.1242 27.7502 25.3032L26.9147 25.3629Z" fill="white"/>
<path d="M27.7499 24.1694C26.9741 24.1694 26.258 24.1694 25.4822 24.229V23.9903C25.7209 23.6919 25.6612 23.6919 25.4822 23.3936C25.4225 23.2742 25.3628 23.1548 25.1838 23.3936C25.0047 23.6323 25.0047 23.6919 25.2434 23.9903V24.229C25.2434 24.229 25.2434 24.229 25.1838 24.229L26.0192 24.9452C26.616 24.9452 27.2725 24.8855 27.8692 24.8855C27.8096 25.0645 27.8096 25.2436 27.8096 25.4226H26.9144C26.9144 25.3032 26.7354 25.2436 26.6757 25.2436C26.616 25.2436 26.4967 25.3032 26.4967 25.3629L26.9144 25.721V25.6613H27.9289C28.0483 25.8403 28.1676 25.9 28.3467 25.9C28.7047 25.9 28.8838 25.4823 28.8241 24.9452C28.7644 24.229 28.466 24.1097 27.7499 24.1694Z" fill="#CFE7E8"/>
</svg>
