<svg width="45" height="45" viewBox="0 0 45 45" fill="none" xmlns="http://www.w3.org/2000/svg">
<path d="M22.5 0C10.0744 0 0 10.0744 0 22.5C0 34.9256 10.0744 45 22.5 45C34.9256 45 45 34.9256 45 22.5C45 10.0744 34.9256 0 22.5 0ZM32.1112 30.8906C32.0044 31.035 31.9181 31.6406 31.7775 32.1187C31.6162 32.6719 31.11 32.61 30.5475 32.4994C29.7281 32.34 28.9969 32.295 28.1456 32.4356C26.6737 32.6812 25.1437 34.8581 22.5787 34.8581C19.8187 34.8581 18.3825 32.6906 16.8525 32.4356C15.2925 32.1769 14.3962 32.5931 13.8581 32.5931C13.4437 32.5931 13.2825 32.34 13.2206 32.13C13.0819 31.6594 12.9956 31.0406 12.8869 30.8925C11.8275 30.7294 9.43687 30.3131 9.375 29.2462C9.36 28.9687 9.555 28.7231 9.83063 28.6781C13.3406 28.1006 15.5738 24.1425 15.21 23.2838C14.9513 22.6744 13.8319 22.455 13.3612 22.2694C12.1462 21.7894 11.9756 21.2381 12.0488 20.8594C12.1481 20.3344 12.7894 19.9819 13.3237 19.9819C13.8394 19.9819 14.7488 20.67 15.4575 20.2781C15.3544 18.4369 15.0937 15.8025 15.75 14.3325C17.0006 11.5275 19.7419 10.14 22.485 10.14C25.2469 10.14 28.0088 11.5463 29.25 14.3306C29.9044 15.7988 29.6475 18.42 29.5425 20.2781C30.2119 20.6475 31.0406 19.965 31.6181 19.965C32.1844 19.965 32.9531 20.3475 32.9663 20.9869C32.9756 21.4875 32.5294 21.9187 31.6388 22.2694C31.1606 22.4587 30.0487 22.6763 29.79 23.2838C29.4187 24.1613 31.7212 28.1081 35.1694 28.6762C35.4431 28.7212 35.64 28.965 35.625 29.2444C35.5631 30.3113 33.1612 30.7275 32.1112 30.8906V30.8906Z" fill="#DDD74A"/>
</svg>
