<svg width="90" height="90" viewBox="0 0 90 90" fill="none" xmlns="http://www.w3.org/2000/svg">
<g id="service-icon">
<circle id="Ellipse 4" cx="45" cy="45" r="44.5" fill="white" stroke="#6CC168"/>
<path id="Vector" d="M28 62L30.4602 53.2691C28.9421 50.7134 28.1444 47.8163 28.1458 44.8456C28.1502 35.5579 35.9304 28 45.4898 28C50.1287 28.0014 54.4833 29.7567 57.7587 32.9413C61.0327 36.126 62.8352 40.359 62.8337 44.8612C62.8294 54.1503 55.0492 61.7082 45.4898 61.7082C42.5877 61.7067 39.7279 60.9998 37.1948 59.6568L28 62V62ZM37.6206 56.6068C40.0648 58.0163 42.3981 58.8607 45.484 58.8621C53.429 58.8621 59.901 52.5806 59.9054 44.8583C59.9083 37.1205 53.4669 30.8475 45.4956 30.8447C37.5448 30.8447 31.0771 37.1262 31.0742 44.847C31.0727 47.9991 32.0235 50.3592 33.6204 52.8285L32.1635 57.9965L37.6206 56.6068V56.6068ZM54.2267 48.8661C54.1187 48.6904 53.83 48.5856 53.3954 48.3745C52.9623 48.1634 50.8317 47.1448 50.4335 47.0046C50.0369 46.8643 49.7481 46.7935 49.4579 47.2157C49.1692 47.6364 48.3379 48.5856 48.0856 48.8661C47.8333 49.1466 47.5796 49.182 47.1465 48.9709C46.7133 48.7598 45.3162 48.3164 43.661 46.8813C42.3733 45.765 41.5027 44.3866 41.2504 43.9644C40.9981 43.5437 41.2242 43.3156 41.44 43.1059C41.6354 42.9175 41.8731 42.6143 42.0904 42.3678C42.3106 42.1242 42.3821 41.9485 42.5279 41.6666C42.6723 41.3861 42.6008 41.1396 42.4915 40.9285C42.3821 40.7188 41.5158 38.6462 41.1556 37.8033C40.8027 36.9831 40.4454 37.0936 40.18 37.0808L39.3487 37.0667C39.06 37.0667 38.5904 37.1715 38.1937 37.5937C37.7971 38.0158 36.6771 39.033 36.6771 41.1056C36.6771 43.1782 38.2302 45.1799 38.446 45.4604C38.6633 45.7409 41.5012 49.9937 45.8485 51.817C46.8825 52.2505 47.6904 52.5097 48.319 52.7038C49.3573 53.024 50.3023 52.9787 51.049 52.871C51.8817 52.7506 53.6127 51.8524 53.9744 50.8692C54.336 49.8847 54.336 49.0417 54.2267 48.8661V48.8661Z" fill="#6CC168"/>
</g>
</svg>
