<svg width="90" height="18" viewBox="0 0 90 18" fill="none" xmlns="http://www.w3.org/2000/svg">
<path d="M9 0L11.751 5.63638L18 6.4936L13.452 10.8341L14.562 17L9 14.0455L3.43725 17L4.548 10.8341L0 6.4936L6.249 5.63638L9 0Z" fill="#ECF017"/>
<path d="M27 0L29.751 5.63638L36 6.4936L31.452 10.8341L32.562 17L27 14.0455L21.4373 17L22.548 10.8341L18 6.4936L24.249 5.63638L27 0Z" fill="#ECF017"/>
<path d="M45 0L47.751 5.63638L54 6.4936L49.452 10.8341L50.562 17L45 14.0455L39.4373 17L40.548 10.8341L36 6.4936L42.249 5.63638L45 0Z" fill="#ECF017"/>
<path d="M63 1L65.751 6.63638L72 7.4936L67.452 11.8341L68.562 18L63 15.0455L57.4373 18L58.548 11.8341L54 7.4936L60.249 6.63638L63 1Z" fill="#ECF017"/>
<path d="M81 1L83.751 6.63638L90 7.4936L85.452 11.8341L86.562 18L81 15.0455L75.4373 18L76.548 11.8341L72 7.4936L78.249 6.63638L81 1Z" fill="#ECF017"/>
</svg>
