<svg width="90" height="90" viewBox="0 0 90 90" fill="none" xmlns="http://www.w3.org/2000/svg">
<g id="thumbs up-icon">
<circle id="Ellipse 3" cx="45" cy="45" r="44.5" fill="white" stroke="#6CC168"/>
<path id="Vector" d="M34.2917 59.1667H27V42.1667H34.2917V59.1667ZM59.9802 47.2497C58.7304 47.0867 59.1373 46.2098 60.0254 45.9435C60.7852 45.7168 62 45.2352 62 43.8043C62 42.8523 61.2708 41.5915 58.6881 41.6935C56.8973 41.7643 53.3419 41.413 51.4271 40.4397C52.7483 35.2604 52.4304 28 48.9654 28C46.6408 28 46.2004 30.5599 45.5019 32.9144C43.7213 38.9239 40.6719 41.4385 37.2083 42.6682V58.0787C43.5988 59.0717 46.4615 62 52.5281 62C57.1919 62 59.604 59.5421 59.604 58.2232C59.604 57.7486 59.2073 57.4114 58.204 57.3363C57.0213 57.2485 57.1335 56.186 58.2492 55.9862C60.0983 55.6547 60.9121 54.6914 60.9121 53.8003C60.9121 53.0509 60.3346 52.3525 59.3108 52.1272C58.0902 51.8595 58.3425 51.0548 59.356 50.9769C61.0083 50.8494 61.8177 49.8946 61.8177 48.9794C61.8177 48.179 61.1994 47.4083 59.9802 47.2497V47.2497Z" fill="#6CC168"/>
</g>
</svg>
